<svg width="19" height="19" viewBox="0 0 19 19" fill="none" xmlns="http://www.w3.org/2000/svg">
<path d="M7.91667 6.53125V13.0625C7.91667 14.5928 6.67612 15.8333 5.14583 15.8333C3.61555 15.8333 2.375 14.5928 2.375 13.0625V9.125C2.375 7.86597 2.96778 6.68042 3.975 5.925L5.06667 5.10625C5.375 4.875 5.75001 4.75 6.13542 4.75C7.11918 4.75 7.91667 5.54749 7.91667 6.53125Z" stroke="#DCE4F1" stroke-width="1.5" stroke-linejoin="round"/>
<path d="M11.0833 6.98917V13.0625C11.0833 14.5928 12.3239 15.8333 13.8542 15.8333C15.3845 15.8333 16.625 14.5928 16.625 13.0625V8.78185C16.625 7.72099 16.2036 6.70357 15.4534 5.95343L14.9058 5.40584C14.4859 4.98591 13.9164 4.75 13.3225 4.75C12.0858 4.75 11.0833 5.75251 11.0833 6.98917Z" stroke="#DCE4F1" stroke-width="1.5" stroke-linejoin="round"/>
<path d="M9.5 1.58334V6.33334C9.5 7.64502 10.5633 8.70834 11.875 8.70834C13.1867 8.70834 14.25 9.77167 14.25 11.0833V11.4792" stroke="#DCE4F1" stroke-width="1.5" stroke-linejoin="round"/>
<path d="M9.5 1.58334V6.33334C9.5 7.64502 8.43668 8.70834 7.125 8.70834C5.81332 8.70834 4.75 9.77167 4.75 11.0833V11.4792" stroke="#DCE4F1" stroke-width="1.5" stroke-linejoin="round"/>
</svg>
