<svg width="19" height="19" viewBox="0 0 19 19" fill="none" xmlns="http://www.w3.org/2000/svg">
<path d="M7.95833 16.625H11.0417C13.2508 16.625 15.0417 14.8341 15.0417 12.625V11.0833V7.19852C15.0417 6.13766 14.6202 5.12024 13.8701 4.37009L13.0466 3.54657C12.2964 2.79643 11.279 2.375 10.2181 2.375H7.95833C5.74919 2.375 3.95833 4.16586 3.95833 6.375V12.625C3.95833 14.8341 5.74919 16.625 7.95833 16.625Z" stroke="#DCE4F1" stroke-width="1.5" stroke-linejoin="round"/>
<path d="M7.125 8.70831L11.875 8.70831" stroke="#DCE4F1" stroke-width="1.5" stroke-linejoin="round"/>
<path d="M7.125 11.875L10.2917 11.875" stroke="#DCE4F1" stroke-width="1.5" stroke-linejoin="round"/>
<path d="M14.6458 6.01512C14.1931 6.27653 13.6667 6.38124 13.1483 6.31299C12.63 6.24475 12.1486 6.00738 11.779 5.63769C11.4093 5.268 11.1719 4.78666 11.1037 4.26831C11.0354 3.74997 11.1401 3.22359 11.4015 2.77081" stroke="#DCE4F1" stroke-width="1.5" stroke-linejoin="round"/>
</svg>
