<svg width="19" height="19" viewBox="0 0 19 19" fill="none" xmlns="http://www.w3.org/2000/svg">
<path d="M14.2471 4.1875L14.0335 4.90645L14.747 3.62842L14.2471 4.1875ZM12.667 3.95801L12.667 3.20801H12.667V3.95801ZM7.125 9.5L6.375 9.5L6.375 9.5L7.125 9.5ZM12.667 15.042L12.667 15.792L12.667 15.792L12.667 15.042ZM14.2471 14.8115L14.747 15.3706L14.0335 14.0926L14.2471 14.8115ZM9.5 2.375V3.125C11.132 3.125 12.6189 3.73774 13.7471 4.74658L14.2471 4.1875L14.747 3.62842C13.3547 2.38347 11.5153 1.625 9.5 1.625V2.375ZM14.2471 4.1875L14.4606 3.46855C13.8921 3.29966 13.2899 3.20804 12.667 3.20801L12.667 3.95801L12.6669 4.70801C13.1422 4.70804 13.6005 4.77784 14.0335 4.90645L14.2471 4.1875ZM12.667 3.95801V3.20801C9.1922 3.20801 6.375 6.02521 6.375 9.5H7.125H7.875C7.875 6.85364 10.0206 4.70801 12.667 4.70801V3.95801ZM7.125 9.5L6.375 9.5C6.375 12.9748 9.1922 15.792 12.667 15.792V15.042V14.292C10.0206 14.292 7.875 12.1464 7.875 9.5L7.125 9.5ZM12.667 15.042L12.667 15.792C13.2909 15.792 13.8929 15.6992 14.4607 15.5305L14.2471 14.8115L14.0335 14.0926C13.5996 14.2215 13.1414 14.292 12.6669 14.292L12.667 15.042ZM14.2471 14.8115L13.7471 14.2525C12.6187 15.2617 11.132 15.875 9.5 15.875V16.625V17.375C11.5158 17.375 13.3549 16.6156 14.747 15.3706L14.2471 14.8115ZM9.5 16.625V15.875C5.97918 15.875 3.125 13.0208 3.125 9.5H2.375H1.625C1.625 13.8492 5.15076 17.375 9.5 17.375V16.625ZM2.375 9.5H3.125C3.125 5.97918 5.97918 3.125 9.5 3.125V2.375V1.625C5.15076 1.625 1.625 5.15076 1.625 9.5H2.375Z" fill="#DCE4F1"/>
</svg>
