<svg width="19" height="19" viewBox="0 0 19 19" fill="none" xmlns="http://www.w3.org/2000/svg">
<circle cx="9.5" cy="9.5" r="7.125" stroke="#DCE4F1"/>
<path d="M13.3235 10.5245C13.0979 11.3661 12.601 12.1099 11.9097 12.6403C11.2184 13.1708 10.3714 13.4583 9.50001 13.4583C8.62864 13.4583 7.78163 13.1708 7.09033 12.6403C6.39903 12.1099 5.90207 11.3661 5.67655 10.5245" stroke="#DCE4F1"/>
<path d="M7.91667 8.3125C7.91667 8.15656 7.88596 8.00214 7.82628 7.85806C7.7666 7.71399 7.67913 7.58308 7.56886 7.47281C7.45859 7.36254 7.32768 7.27507 7.18361 7.21539C7.03953 7.15572 6.88512 7.125 6.72917 7.125C6.57323 7.125 6.41881 7.15572 6.27474 7.21539C6.13066 7.27507 5.99975 7.36254 5.88948 7.47281C5.77921 7.58308 5.69174 7.71399 5.63206 7.85806C5.57239 8.00214 5.54167 8.15656 5.54167 8.3125" stroke="#DCE4F1"/>
<path d="M13.4583 8.3125C13.4583 8.15656 13.4276 8.00214 13.3679 7.85806C13.3083 7.71399 13.2208 7.58308 13.1105 7.47281C13.0002 7.36254 12.8693 7.27507 12.7253 7.21539C12.5812 7.15572 12.4268 7.125 12.2708 7.125C12.1149 7.125 11.9605 7.15572 11.8164 7.21539C11.6723 7.27507 11.5414 7.36254 11.4311 7.47281C11.3209 7.58308 11.2334 7.71399 11.1737 7.85806C11.114 8.00214 11.0833 8.15656 11.0833 8.3125" stroke="#DCE4F1"/>
</svg>
