<svg width="19" height="19" viewBox="0 0 19 19" fill="none" xmlns="http://www.w3.org/2000/svg">
<path d="M7.50491 15.4534L15.4375 7.52081C16.5306 6.42775 16.5306 4.65554 15.4375 3.56248C14.3444 2.46942 12.5722 2.46942 11.4792 3.56248L3.54657 11.4951C2.79643 12.2452 2.375 13.2626 2.375 14.3235V16.625H4.67648C5.73734 16.625 6.75476 16.2036 7.50491 15.4534Z" stroke="#DCE4F1" stroke-width="1.5" stroke-linejoin="round"/>
<path d="M15.4375 3.56248C14.3444 2.46942 12.5722 2.46942 11.4792 3.56248C10.3861 4.65554 10.3861 6.42775 11.4792 7.52081C12.5722 8.61388 14.3444 8.61388 15.4375 7.52081C16.5306 6.42775 16.5306 4.65554 15.4375 3.56248Z" stroke="#DCE4F1" stroke-width="1.5" stroke-linejoin="round"/>
</svg>
