<svg width="19" height="19" viewBox="0 0 19 19" fill="none" xmlns="http://www.w3.org/2000/svg">
<path d="M14.25 7.125C14.25 4.50165 12.1234 2.375 9.5 2.375C6.87665 2.375 4.75 4.50165 4.75 7.125M4.75 11.875C4.75 14.4984 6.87665 16.625 9.5 16.625C12.1234 16.625 14.25 14.4984 14.25 11.875" stroke="#DCE4F1" stroke-width="1.5" stroke-linejoin="round"/>
<path d="M1.58334 9.49999H4.20171C5.48914 9.49999 6.64686 10.2838 7.125 11.4792L7.67927 12.8648C7.82265 13.2233 8.16982 13.4583 8.55587 13.4583C9.0773 13.4583 9.5 13.0356 9.5 12.5142V6.48578C9.5 5.96436 9.9227 5.54166 10.4441 5.54166C10.8302 5.54166 11.1774 5.7767 11.3207 6.13514L11.875 7.52082C12.3531 8.71617 13.5109 9.49999 14.7983 9.49999H17.4167" stroke="#DCE4F1" stroke-width="1.5" stroke-linejoin="round"/>
</svg>
