<svg width="13" height="17" viewBox="0 0 13 17" fill="none" xmlns="http://www.w3.org/2000/svg">
<path d="M8.27104 4.538C9.3641 4.538 10.2502 3.69003 10.2502 2.644C10.2502 1.59797 9.3641 0.75 8.27104 0.75C7.17797 0.75 6.29187 1.59797 6.29187 2.644C6.29187 3.69003 7.17797 4.538 8.27104 4.538Z" stroke="#DCE4F1" stroke-width="1.5"/>
<path d="M0.750206 15.902L3.79733 14.8619C4.158 14.7387 4.45979 14.4945 4.64679 14.1747M11.8335 15.902V11.9383C11.8335 11.7188 11.7837 11.502 11.6874 11.3027C11.5912 11.1035 11.4509 10.9267 11.2763 10.7844C11.1016 10.6422 10.8967 10.538 10.6758 10.479C10.4549 10.42 10.2233 10.4077 9.99687 10.4428L9.19492 10.5678M3.52104 9.84123L3.03496 9.38819C2.89504 9.25771 2.79093 9.09622 2.73184 8.91802C2.67275 8.73982 2.66052 8.55043 2.69623 8.36662C2.73193 8.18282 2.81447 8.01028 2.93653 7.86431C3.05859 7.71834 3.21639 7.60344 3.39596 7.52979L5.34029 6.73204C5.52096 6.65807 5.71798 6.62817 5.9137 6.64501C6.10942 6.66184 6.29771 6.7249 6.4617 6.82852C6.62568 6.93214 6.76023 7.07308 6.85329 7.23871C6.94634 7.40434 6.99499 7.58948 6.99487 7.77753V9.76244C6.99495 10.0213 6.92572 10.2759 6.79379 10.5019L6.25704 11.4201" stroke="#DCE4F1" stroke-width="1.5" stroke-linecap="round" stroke-linejoin="round"/>
</svg>
