<svg width="19" height="19" viewBox="0 0 19 19" fill="none" xmlns="http://www.w3.org/2000/svg">
<path d="M1.58334 2.375H7.91667C8.79112 2.375 9.5 3.08388 9.5 3.95833C9.5 4.83278 8.79112 5.54167 7.91667 5.54167H3.95834C3.08388 5.54167 2.375 6.25055 2.375 7.125C2.375 7.99945 3.08388 8.70833 3.95834 8.70833H10.2917" stroke="#DCE4F1" stroke-width="1.5"/>
<path d="M11.0833 8.70831H15.4375C16.0933 8.70831 16.625 9.23997 16.625 9.89581C16.625 10.5517 16.0933 11.0833 15.4375 11.0833H13.0625C12.4067 11.0833 11.875 11.615 11.875 12.2708C11.875 12.9267 12.4067 13.4583 13.0625 13.4583H17.4167" stroke="#DCE4F1" stroke-width="1.5"/>
<path d="M4.75 11.875H8.3125C8.96834 11.875 9.5 12.4067 9.5 13.0625C9.5 13.7183 8.96834 14.25 8.3125 14.25H6.72917C6.07333 14.25 5.54167 14.7817 5.54167 15.4375C5.54167 16.0933 6.07333 16.625 6.72917 16.625H10.2917" stroke="#DCE4F1" stroke-width="1.5"/>
</svg>
