<svg width="11" height="18" viewBox="0 0 11 18" fill="none" xmlns="http://www.w3.org/2000/svg">
<path d="M2.8553 12.2823C3.00963 12.2514 3.1706 12.2829 3.30158 12.3702C3.43257 12.4575 3.52361 12.5937 3.55451 12.7481C3.58539 12.9025 3.55395 13.0634 3.46662 13.1944L1.09166 16.7569C1.04883 16.8227 0.992442 16.8787 0.927596 16.9229C0.862916 16.967 0.790369 16.9979 0.713732 17.0137C0.636953 17.0295 0.557284 17.0306 0.480338 17.0157C0.403376 17.0007 0.329785 16.9703 0.264521 16.9268C0.199245 16.8833 0.142981 16.8271 0.0994848 16.7618C0.0559928 16.6964 0.0256018 16.623 0.0106191 16.546C-0.00435654 16.4689 -0.00330053 16.3895 0.0125722 16.3126C0.0284496 16.2357 0.0591349 16.1625 0.103391 16.0977L2.47835 12.5352C2.56563 12.4044 2.70112 12.3132 2.8553 12.2823ZM5.84939 6.33889C6.28048 6.36975 6.69323 6.52806 7.03394 6.79397C7.37471 7.06002 7.62885 7.42218 7.76342 7.83303C7.78711 7.90729 7.80787 7.9886 7.83471 8.0928L7.83861 8.11233C7.8829 8.28949 7.89627 8.3402 7.90893 8.37503C8.07517 8.85478 8.578 9.13087 9.07199 9.0137C9.1084 9.00577 9.15862 8.98938 9.33175 8.93167L9.90987 8.73929C10.0572 8.69642 10.2154 8.71203 10.3513 8.78323C10.4872 8.85447 10.5908 8.97553 10.6393 9.12113C10.6879 9.26673 10.678 9.42591 10.612 9.56449C10.546 9.70311 10.4286 9.81121 10.2849 9.86527L9.70675 10.0586L9.68136 10.0664C9.57112 10.1057 9.45871 10.1397 9.34543 10.169C8.82094 10.2932 8.26915 10.2183 7.79662 9.95902C7.32394 9.69956 6.96371 9.27407 6.78687 8.76468C6.75048 8.65322 6.71949 8.54006 6.69313 8.42581L6.68629 8.39944C6.67106 8.33317 6.654 8.26733 6.63453 8.20218C6.57336 8.01579 6.45805 7.85128 6.30348 7.7305C6.14877 7.60973 5.96116 7.5376 5.76541 7.52346C5.6975 7.52048 5.62926 7.51914 5.56131 7.52053H4.69707L4.6248 8.24319C4.48708 9.62043 4.43961 10.175 4.5623 10.6983C4.68585 11.2221 4.97513 11.6965 5.7117 12.8682L7.74975 16.1114C7.83132 16.2446 7.85759 16.4046 7.82201 16.5567C7.78637 16.7089 7.69163 16.8407 7.55932 16.9239C7.42707 17.007 7.26748 17.0348 7.11499 17.001C6.96256 16.9672 6.82956 16.8744 6.74488 16.7432L4.64921 13.4082C3.9882 12.3577 3.58023 11.7092 3.40607 10.9698C3.23202 10.2305 3.30915 9.46706 3.43341 8.23147L3.44318 8.12405L3.50373 7.52151C3.1079 7.52389 2.8129 7.53128 2.57698 7.56057C2.27815 7.59617 2.1388 7.65926 2.03988 7.73831C1.94173 7.81746 1.8494 7.93953 1.74887 8.22366C1.64361 8.52203 1.55313 8.92669 1.41782 9.53519L1.17662 10.6182C1.14061 10.77 1.04615 10.9016 0.913924 10.9844C0.781659 11.0672 0.621916 11.0955 0.469596 11.0616C0.317473 11.0276 0.185046 10.9347 0.100461 10.8037C0.0158322 10.6726 -0.0143594 10.5132 0.0174549 10.3604L0.266474 9.2432C0.391511 8.67815 0.497586 8.20331 0.629749 7.82815C0.76983 7.43085 0.961257 7.08166 1.29673 6.81252C1.63239 6.54336 2.01465 6.43234 2.43343 6.38088C2.82833 6.33343 3.31497 6.33303 3.89337 6.33303H5.58084C5.68822 6.33303 5.77119 6.33338 5.84939 6.33889ZM4.95097 0C5.63333 0 6.28777 0.271404 6.77027 0.753909C7.25278 1.23643 7.52417 1.89087 7.52417 2.57325C7.52408 3.25552 7.2527 3.91015 6.77027 4.39259C6.2878 4.87489 5.63317 5.14553 4.95097 5.14553C4.26873 5.14543 3.61408 4.87502 3.13166 4.39259C2.64924 3.91015 2.37883 3.25551 2.37874 2.57325C2.37874 1.89103 2.64937 1.23639 3.13166 0.753909C3.61408 0.271478 4.26873 9.69662e-05 4.95097 0ZM4.95097 1.1875C4.76916 1.18755 4.58867 1.2234 4.4207 1.29297C4.25278 1.36259 4.10003 1.46521 3.97149 1.59376C3.84301 1.72233 3.74125 1.87504 3.67169 2.04298C3.60209 2.21104 3.56622 2.39135 3.56622 2.57325C3.56627 2.75508 3.60211 2.93554 3.67169 3.10353C3.74131 3.27142 3.84297 3.42422 3.97149 3.55275C4.10001 3.68126 4.25282 3.78293 4.4207 3.85255C4.58867 3.92213 4.76916 3.95797 4.95097 3.95802C5.3184 3.95802 5.67161 3.81256 5.93142 3.55275C6.19107 3.29302 6.3366 2.9405 6.33669 2.57325C6.33669 2.20603 6.19094 1.85353 5.93142 1.59376C5.67161 1.33394 5.3184 1.1875 4.95097 1.1875Z" fill="#DCE4F1"/>
</svg>
