<svg width="16" height="17" viewBox="0 0 16 17" fill="none" xmlns="http://www.w3.org/2000/svg">
<path d="M4.36808 6.83334C4.91117 7.9393 5.49067 8.9748 5.35767 10.2486C5.14313 12.2856 2.67392 13.0519 1.09375 13.99C0.0590433 14.6051 0.446168 16.3333 1.716 16.3333C3.255 16.3333 4.62933 16.2106 6.01871 15.5575L8.74204 13.8816C9.12046 13.7034 9.59704 13.7794 10 13.9583" stroke="#DCE4F1" stroke-linecap="round" stroke-linejoin="round"/>
<path d="M10.7996 6.83334C10.2454 7.9393 9.65325 8.9748 9.79021 10.2486C10.0087 12.2856 12.531 13.0519 14.1436 13.99C15.1997 14.6051 14.8046 16.3333 13.5087 16.3333C11.9364 16.3333 10.5328 16.2106 9.11492 15.5575L6.333 13.8816C6.00842 13.7319 5.61258 13.762 5.25 13.8816" stroke="#DCE4F1" stroke-linecap="round" stroke-linejoin="round"/>
<path d="M6.04167 2.08333C6.04167 2.50326 6.20849 2.90599 6.50542 3.20292C6.80235 3.49985 7.20508 3.66667 7.62501 3.66667C8.04493 3.66667 8.44766 3.49985 8.74459 3.20292C9.04152 2.90599 9.20834 2.50326 9.20834 2.08333C9.20834 1.66341 9.04152 1.26068 8.74459 0.963748C8.44766 0.666815 8.04493 0.5 7.62501 0.5C7.20508 0.5 6.80235 0.666815 6.50542 0.963748C6.20849 1.26068 6.04167 1.66341 6.04167 2.08333Z" stroke="#DCE4F1"/>
<path d="M0.5 11.5833C2.43642 11.5833 3.30567 9.44188 3.58196 7.96542C3.65479 7.57909 3.77196 7.19513 4.02767 6.89746C4.4733 6.38003 5.02544 5.96496 5.6463 5.68062C6.26717 5.39629 6.94212 5.2494 7.625 5.25C9.06267 5.25 10.3515 5.88888 11.2223 6.89746C11.478 7.19513 11.5952 7.57909 11.668 7.96463C11.9451 9.44188 12.8136 11.5833 14.75 11.5833" stroke="#DCE4F1" stroke-linecap="round" stroke-linejoin="round"/>
</svg>
