<svg width="50" height="50" viewBox="0 0 50 50" fill="none" xmlns="http://www.w3.org/2000/svg">
<path d="M43.75 25C43.75 28.7084 42.6503 32.3335 40.5901 35.4169C38.5298 38.5004 35.6014 40.9036 32.1753 42.3227C28.7492 43.7419 24.9792 44.1132 21.3421 43.3897C17.7049 42.6663 14.364 40.8805 11.7417 38.2583C9.11951 35.636 7.33375 32.2951 6.61028 28.6579C5.8868 25.0208 6.25812 21.2508 7.67726 17.8247C9.0964 14.3986 11.4996 11.4702 14.5831 9.40994C17.6665 7.34967 21.2916 6.25 25 6.25" stroke="#BBC5C6" stroke-width="3" stroke-linejoin="round"/>
<path d="M40.9217 11.7549L38.2452 9.07843C36.6831 7.51633 34.1504 7.51633 32.5883 9.07843L17.8383 23.8284C17.0882 24.5786 16.6667 25.596 16.6667 26.6569V33.3333H23.3432C24.4041 33.3333 25.4215 32.9119 26.1717 32.1618L40.9217 17.4118C42.4838 15.8497 42.4838 13.317 40.9217 11.7549Z" stroke="#BBC5C6" stroke-width="3" stroke-linejoin="round"/>
<path d="M32.5882 9.07842L29.9117 11.7549C28.3496 13.317 28.3496 15.8497 29.9117 17.4118L32.5882 20.0882C34.1503 21.6503 36.6829 21.6503 38.245 20.0882L40.9215 17.4118C42.4836 15.8497 42.4836 13.317 40.9215 11.7549L38.245 9.07843C36.6829 7.51633 34.1503 7.51633 32.5882 9.07842Z" stroke="#BBC5C6" stroke-width="2" stroke-linejoin="round"/>
</svg>
