<svg width="29" height="36" viewBox="0 0 29 36" fill="none" xmlns="http://www.w3.org/2000/svg">
<path d="M28.0836 9.29167C28.0836 11.5571 27.1837 13.7297 25.5818 15.3315C23.9799 16.9334 21.8073 17.8333 19.5419 17.8333C17.2765 17.8333 15.1039 16.9334 13.502 15.3315C11.9002 13.7297 11.0002 11.5571 11.0002 9.29167C11.0002 7.02628 11.9002 4.85367 13.502 3.2518C15.1039 1.64992 17.2765 0.75 19.5419 0.75C21.8073 0.75 23.9799 1.64992 25.5818 3.2518C27.1837 4.85367 28.0836 7.02628 28.0836 9.29167Z" stroke="#3E3A5D" stroke-width="1.5"/>
<path d="M20.1825 5.02087L16.9794 9.29171H22.1044L18.9013 13.5625M0.750244 21.25H4.8417C5.34395 21.25 5.83937 21.3628 6.28866 21.5815L9.77708 23.2693C10.2264 23.4862 10.7218 23.599 11.2257 23.599H13.0058C14.7278 23.599 16.1252 24.9503 16.1252 26.6176C16.1252 26.686 16.0791 26.744 16.0125 26.7628L11.6716 27.9638C10.8927 28.179 10.0621 28.1037 9.33462 27.752L5.60533 25.948M16.1252 25.5209L23.9716 23.1104C24.6547 22.9008 25.3865 22.9123 26.0627 23.1433C26.7388 23.3744 27.3248 23.813 27.7368 24.3968C28.3672 25.268 28.1109 26.5185 27.1918 27.0481L14.3537 34.4572C13.9523 34.6894 13.5078 34.8375 13.0472 34.8925C12.5867 34.9474 12.1198 34.908 11.675 34.7766L0.750244 31.5342" stroke="#3E3A5D" stroke-width="1.5" stroke-linecap="round" stroke-linejoin="round"/>
</svg>
