<svg width="50" height="50" viewBox="0 0 50 50" fill="none" xmlns="http://www.w3.org/2000/svg">
<path d="M35.4844 45.8333V34.8282C35.4844 33.5275 36.1433 32.3347 37.0895 31.4422C38.3976 30.2085 39.4706 28.7392 40.249 27.1051C41.326 24.8445 41.8026 22.3445 41.6331 19.8462C41.4636 17.3478 40.6537 14.9352 39.2813 12.8407C37.9089 10.7462 36.0202 9.04036 33.7973 7.88749C31.5744 6.73462 29.0921 6.17357 26.5894 6.25837C24.0867 6.34317 21.6481 7.07096 19.5083 8.37165C17.3685 9.67234 15.5997 11.5021 14.3722 13.6847C13.1447 15.8673 12.4999 18.3292 12.4999 20.8333L8.33325 29.1667H12.4999V35.4167H18.7499V45.8333" stroke="#BBC5C6" stroke-width="3" stroke-linejoin="round"/>
<path d="M34.3751 23.9584L27.6962 30.6373C27.3578 30.9757 26.8091 30.9757 26.4707 30.6373L19.7917 23.9584C18.0659 22.2325 18.0659 19.4343 19.7917 17.7084C21.5176 15.9825 24.3159 15.9825 26.0417 17.7084L27.0834 18.75L28.1251 17.7084C29.851 15.9825 32.6492 15.9825 34.3751 17.7084C36.101 19.4343 36.101 22.2325 34.3751 23.9584Z" stroke="#BBC5C6" stroke-width="3" stroke-linejoin="round"/>
</svg>
