<svg width="35" height="35" viewBox="0 0 35 35" fill="none" xmlns="http://www.w3.org/2000/svg">
<path d="M30.625 26.25V16.0417C30.625 14.4308 29.3192 13.125 27.7083 13.125C26.0975 13.125 24.7917 14.4308 24.7917 16.0417V26.25C24.7917 27.8608 26.0975 29.1667 27.7083 29.1667C29.3192 29.1667 30.625 27.8608 30.625 26.25Z" stroke="#67527E" stroke-width="2" stroke-linejoin="round"/>
<path d="M10.2083 26.25V21.875C10.2083 20.2642 8.9025 18.9583 7.29167 18.9583C5.68084 18.9583 4.375 20.2642 4.375 21.875V26.25C4.375 27.8608 5.68084 29.1667 7.29167 29.1667C8.9025 29.1667 10.2083 27.8608 10.2083 26.25Z" stroke="#67527E" stroke-width="2" stroke-linejoin="round"/>
<path d="M20.4167 26.25V8.75001C20.4167 7.13918 19.1108 5.83334 17.5 5.83334C15.8892 5.83334 14.5833 7.13918 14.5833 8.75001V26.25C14.5833 27.8608 15.8892 29.1667 17.5 29.1667C19.1108 29.1667 20.4167 27.8608 20.4167 26.25Z" stroke="#67527E" stroke-width="2" stroke-linejoin="round"/>
</svg>
