<svg width="439" height="141" viewBox="0 0 439 141" fill="none" xmlns="http://www.w3.org/2000/svg">
<circle cx="63.7164" cy="8.5" r="8.5" fill="black"/>
<path d="M77.1715 29.4834C77.9949 34.192 80.9289 41.407 87.0387 47.251C93.0609 53.0112 102.299 57.5708 116.08 56.9424C129.861 56.314 131.751 62.2334 116.353 62.9355C100.955 63.6377 90.1137 58.4952 82.8912 51.5869C75.7563 44.7624 72.28 36.342 71.2613 30.5166C70.2426 24.6912 76.348 24.7748 77.1715 29.4834Z" fill="black"/>
<path d="M51.2632 29.4717C50.4227 34.1655 47.4244 41.3774 41.1636 47.2266C34.9878 52.9963 25.5014 57.5717 11.3501 56.9414C-2.80123 56.3112 -4.63928 62.2353 11.0825 62.9356C26.8043 63.6358 37.875 58.5099 45.2593 51.6114C52.5584 44.7921 56.1226 38.5567 57.1694 30.5283C58.2163 22.5 52.1036 24.7779 51.2632 29.4717Z" fill="black"/>
<path d="M20.4671 106.146C20.1027 95.8248 21.5351 91.0376 31.5351 83.0376C41.5351 75.0376 31.5351 72 23.3778 79.2368C15.2206 86.4736 11.5995 93.8099 12.0351 106.146C12.2545 112.362 14.7298 118.628 18.6052 123.644C22.5741 128.78 28.6229 132.062 36.8191 132.973L36.864 132.978L36.9089 132.981C41.516 133.4 48.302 132.345 54.4499 128.035C60.7464 123.621 67.6314 113.421 69.3934 101.527C72.1815 82.7087 84.2284 81.0308 90.2537 81.001C94.4104 81.1505 100.191 83.3505 103.689 89.7764C110.086 101.527 104.49 115.748 95.4901 124.709C86.4901 133.67 95.4901 136.897 104.076 127.408C112.662 117.919 121.247 103.208 111.593 85.4736C106.312 75.7709 97.291 72.2092 90.4529 72.002L90.3845 72H90.3162C80.9752 72.0002 64.0923 75.8939 60.4901 100.209C59.0521 109.915 53.3539 117.812 49.2839 120.665C45.0834 123.609 40.4902 124.26 37.7595 124.02C31.5887 123.324 27.9518 121.02 25.7273 118.141C23.4029 115.132 20.6477 111.26 20.4671 106.146Z" fill="black"/>
<path d="M168.98 74.5C169.3 74.7 169.92 75.08 170.84 75.64C171.8 76.16 172.44 76.78 172.76 77.5C173.08 78.22 173.24 79.22 173.24 80.5C173.24 81.94 172.82 83.22 171.98 84.34C171.14 85.42 170.06 86.26 168.74 86.86C167.78 87.3 166.6 87.64 165.2 87.88C163.84 88.12 162.76 88.24 161.96 88.24C161.16 88.24 160.12 88.12 158.84 87.88C157.6 87.64 156.74 87.42 156.26 87.22C155.02 86.5 153.94 85.62 153.02 84.58C152.14 83.54 151.7 82.48 151.7 81.4C151.7 80.6 151.96 79.98 152.48 79.54C153 79.06 153.68 78.82 154.52 78.82C154.92 78.82 155.34 78.98 155.78 79.3C156.22 79.58 156.52 79.88 156.68 80.2C157.12 81.24 157.86 82.02 158.9 82.54C159.94 83.06 161 83.32 162.08 83.32C163.48 83.32 164.78 83.1 165.98 82.66C167.18 82.18 167.78 81.54 167.78 80.74C167.78 80.38 167.68 80.1 167.48 79.9C167.32 79.66 167.08 79.42 166.76 79.18C166.2 78.78 165.36 78.46 164.24 78.22C163.12 77.94 162.4 77.76 162.08 77.68C160.44 77.32 158.84 76.78 157.28 76.06C155.72 75.3 154.48 74.4 153.56 73.36C152.64 72.32 152.18 70.98 152.18 69.34C152.18 68.26 152.58 67.14 153.38 65.98C154.18 64.78 155.08 63.94 156.08 63.46C156.8 63.18 158 62.88 159.68 62.56C161.4 62.24 162.56 62.08 163.16 62.08C164.08 62.08 165.08 62.18 166.16 62.38C167.24 62.54 168.06 62.82 168.62 63.22C169.7 63.86 170.58 64.54 171.26 65.26C171.94 65.94 172.28 66.72 172.28 67.6C172.28 68.04 172.18 68.52 171.98 69.04C171.78 69.52 171.54 69.82 171.26 69.94C170.66 70.22 169.96 70.36 169.16 70.36C168.8 70.36 168.5 70.26 168.26 70.06C168.06 69.86 167.78 69.54 167.42 69.1C166.98 68.42 166.56 68.02 166.16 67.9C165.68 67.78 164.98 67.64 164.06 67.48C163.14 67.28 162.52 67.18 162.2 67.18C161.28 67.18 160.32 67.44 159.32 67.96C158.36 68.48 157.88 69.08 157.88 69.76C157.88 70.12 158.02 70.4 158.3 70.6C158.62 70.8 158.94 70.98 159.26 71.14C159.62 71.3 159.86 71.4 159.98 71.44C160.82 71.84 161.74 72.18 162.74 72.46C163.78 72.74 164.42 72.92 164.66 73C166.82 73.52 168.26 74.02 168.98 74.5ZM187.959 49.48C189.359 49.6 190.579 49.98 191.619 50.62C192.659 51.22 193.179 52.14 193.179 53.38C193.179 54.3 192.739 55.04 191.859 55.6C191.019 56.12 189.999 56.38 188.799 56.38C187.639 56.38 186.839 56.08 186.399 55.48C185.959 54.88 185.739 54.26 185.739 53.62C185.739 52.42 185.859 51.42 186.099 50.62C186.379 49.82 186.999 49.44 187.959 49.48ZM192.759 76.06V77.8C192.759 79.36 192.799 80.84 192.879 82.24C192.999 83.6 193.139 84.98 193.299 86.38C193.259 86.78 192.959 87.2 192.399 87.64C191.839 88.04 191.339 88.24 190.899 88.24C190.139 88.24 189.359 88.1 188.559 87.82C187.799 87.5 187.339 87.12 187.179 86.68C186.939 85.4 186.819 84.26 186.819 83.26C186.819 79.98 186.719 76.3 186.519 72.22C186.359 68.62 186.279 66.1 186.279 64.66C186.279 63.94 186.639 63.32 187.359 62.8C188.079 62.28 188.839 62.02 189.639 62.02C190.799 62.02 191.599 62.28 192.039 62.8C192.519 63.32 192.759 64.14 192.759 65.26V76.06ZM209.31 49.48C210.71 49.6 211.93 49.98 212.97 50.62C214.01 51.22 214.53 52.14 214.53 53.38C214.53 54.3 214.09 55.04 213.21 55.6C212.37 56.12 211.35 56.38 210.15 56.38C208.99 56.38 208.19 56.08 207.75 55.48C207.31 54.88 207.09 54.26 207.09 53.62C207.09 52.42 207.21 51.42 207.45 50.62C207.73 49.82 208.35 49.44 209.31 49.48ZM214.11 76.06V77.8C214.11 79.36 214.15 80.84 214.23 82.24C214.35 83.6 214.49 84.98 214.65 86.38C214.65 86.86 214.37 87.3 213.81 87.7C213.25 88.06 212.73 88.24 212.25 88.24C211.49 88.24 210.71 88.1 209.91 87.82C209.15 87.5 208.69 87.12 208.53 86.68C208.29 85.4 208.17 84.26 208.17 83.26C208.17 79.98 208.07 76.3 207.87 72.22C207.71 68.62 207.63 66.1 207.63 64.66C207.63 63.94 207.99 63.32 208.71 62.8C209.43 62.28 210.19 62.02 210.99 62.02C212.15 62.02 212.95 62.28 213.39 62.8C213.87 63.32 214.11 64.14 214.11 65.26V76.06ZM274.798 73.72C275.038 72.84 275.298 71.64 275.578 70.12C275.978 68.32 276.298 66.96 276.538 66.04C276.778 65.12 277.098 64.34 277.498 63.7C277.938 62.98 278.318 62.5 278.638 62.26C278.998 62.02 279.378 61.9 279.778 61.9C281.858 61.9 282.898 62.7 282.898 64.3C282.898 65.1 282.578 66.6 281.938 68.8C279.818 75.2 278.298 80.16 277.378 83.68C276.978 85.16 276.378 86.3 275.578 87.1C274.778 87.86 273.698 88.24 272.338 88.24C271.658 88.24 270.958 87.92 270.238 87.28C269.558 86.6 268.998 85.78 268.558 84.82L267.898 83.2C266.778 80.36 265.938 78.18 265.378 76.66C264.858 75.1 264.518 73.7 264.358 72.46L263.818 74.38C262.858 77.82 261.858 81.02 260.818 83.98C260.298 85.5 259.658 86.6 258.898 87.28C258.138 87.92 257.158 88.24 255.958 88.24C255.238 88.24 254.598 88.08 254.038 87.76C253.518 87.44 253.018 86.9 252.538 86.14C251.898 85.1 251.278 83.7 250.678 81.94C250.118 80.18 249.298 77.44 248.218 73.72C247.698 72.12 247.218 70.44 246.778 68.68C246.338 66.88 246.118 65.62 246.118 64.9C246.118 64.06 246.338 63.4 246.778 62.92C247.218 62.44 247.858 62.2 248.698 62.2C249.778 62.2 250.538 62.42 250.978 62.86C251.418 63.26 251.818 63.88 252.178 64.72C252.378 66.16 252.818 68.2 253.498 70.84L254.818 76.48C254.898 76.92 255.138 77.84 255.538 79.24L256.018 80.98C256.898 79.1 257.638 77.3 258.238 75.58C258.838 73.86 259.498 71.74 260.218 69.22C260.258 69.06 260.658 67.68 261.418 65.08C261.938 64.24 262.398 63.62 262.798 63.22C263.198 62.78 263.598 62.56 263.998 62.56C264.798 62.56 265.478 62.82 266.038 63.34C266.638 63.82 267.078 64.42 267.358 65.14C267.838 66.7 268.258 68.12 268.618 69.4C268.778 69.92 269.138 71.18 269.698 73.18C270.298 75.14 270.838 76.8 271.318 78.16C271.798 79.52 272.198 80.48 272.518 81.04L274.798 73.72ZM296.858 49.48C298.258 49.6 299.458 49.98 300.458 50.62C301.498 51.22 302.018 52.14 302.018 53.38C302.018 54.3 301.598 55.04 300.758 55.6C299.918 56.12 298.878 56.38 297.638 56.38C296.478 56.38 295.678 56.08 295.238 55.48C294.798 54.88 294.578 54.26 294.578 53.62C294.578 52.46 294.718 51.48 294.998 50.68C295.278 49.84 295.898 49.44 296.858 49.48ZM295.658 74.26V72.52C295.658 70.52 295.558 68.7 295.358 67.06C295.198 65.38 295.098 64.34 295.058 63.94C295.098 63.5 295.398 63.08 295.958 62.68C296.518 62.28 297.018 62.08 297.458 62.08C298.218 62.08 298.978 62.24 299.738 62.56C300.538 62.84 301.038 63.2 301.238 63.64C301.438 65.12 301.538 66.26 301.538 67.06C301.538 68.82 301.618 71.7 301.778 75.7L301.838 78.04L301.958 80.32C301.998 80.96 302.038 81.72 302.078 82.6C302.118 83.48 302.138 84.48 302.138 85.6C302.138 86.36 301.758 87 300.998 87.52C300.278 88.04 299.518 88.3 298.718 88.3C297.558 88.3 296.738 88.04 296.258 87.52C295.818 87 295.598 86.18 295.598 85.06L295.658 74.26ZM315.273 67.24C314.713 67.16 314.253 66.92 313.893 66.52C313.573 66.12 313.413 65.64 313.413 65.08C313.413 64.8 313.473 64.5 313.593 64.18C313.753 63.86 313.973 63.58 314.253 63.34C314.773 62.9 315.473 62.48 316.353 62.08C317.273 61.72 317.933 61.28 318.333 60.76C318.733 60.24 318.933 59.26 318.933 57.82C318.933 57.22 318.893 56.7 318.813 56.26C318.773 55.82 318.753 55.48 318.753 55.24C318.753 54.36 319.073 53.7 319.713 53.26C320.353 52.82 321.093 52.6 321.933 52.6C322.973 52.6 323.673 52.86 324.033 53.38C324.433 53.9 324.633 54.86 324.633 56.26C324.633 57.62 324.573 58.8 324.453 59.8C324.333 60.76 324.073 61.62 323.673 62.38C324.233 62.38 325.153 62.34 326.433 62.26C328.193 62.18 329.413 62.14 330.093 62.14C330.773 62.14 331.373 62.32 331.893 62.68C332.413 63 332.673 63.46 332.673 64.06C332.673 64.9 332.493 65.52 332.133 65.92C331.773 66.32 331.253 66.58 330.573 66.7C328.933 67.14 326.613 67.4 323.613 67.48C323.533 69.04 323.493 70.74 323.493 72.58C323.493 75.66 323.673 78.02 324.033 79.66C324.273 80.94 324.673 81.88 325.233 82.48C325.833 83.04 326.713 83.32 327.873 83.32C328.473 83.32 328.953 83.24 329.313 83.08C329.713 82.92 329.933 82.82 329.973 82.78C330.453 82.5 330.893 82.36 331.293 82.36C331.853 82.36 332.253 82.54 332.493 82.9C332.773 83.26 332.913 83.74 332.913 84.34C332.913 85.46 332.313 86.4 331.113 87.16C329.913 87.88 328.373 88.24 326.493 88.24C324.373 88.24 322.573 87.62 321.093 86.38C319.653 85.1 318.793 83.42 318.513 81.34C318.113 79.46 317.913 76.82 317.913 73.42C317.913 71.94 317.993 69.96 318.153 67.48L315.273 67.24ZM350.971 49.96C350.971 51 350.951 52.22 350.911 53.62C350.871 54.98 350.831 56.02 350.791 56.74C350.671 58.78 350.611 60.82 350.611 62.86C350.611 64.38 350.671 65.96 350.791 67.6C352.031 65.8 353.371 64.48 354.811 63.64C356.251 62.8 357.991 62.38 360.031 62.38C361.511 62.38 362.891 63.04 364.171 64.36C365.451 65.68 366.271 67.22 366.631 68.98C366.751 70.54 366.811 72.44 366.811 74.68C366.811 76.12 366.891 78 367.051 80.32C367.131 81.2 367.351 82.02 367.711 82.78C368.111 83.54 368.671 83.92 369.391 83.92C369.751 83.92 370.031 83.9 370.231 83.86C370.471 83.82 370.691 83.8 370.891 83.8C371.451 83.8 371.831 83.94 372.031 84.22C372.271 84.5 372.391 84.9 372.391 85.42C372.391 86.38 371.911 87.1 370.951 87.58C369.991 88.06 369.111 88.3 368.311 88.3C365.431 88.3 363.451 87.1 362.371 84.7C361.771 83.34 361.391 81.58 361.231 79.42C361.071 77.22 360.991 74.66 360.991 71.74C360.991 68.86 360.011 67.42 358.051 67.42C356.971 67.42 355.871 68 354.751 69.16C353.671 70.28 352.771 71.78 352.051 73.66C351.331 75.5 350.971 77.42 350.971 79.42L351.031 85.66C351.031 86.54 350.691 87.2 350.011 87.64C349.331 88.04 348.691 88.24 348.091 88.24C347.211 88.24 346.411 87.98 345.691 87.46C344.971 86.9 344.611 86.28 344.611 85.6C344.891 82.6 345.031 77.58 345.031 70.54C345.031 69.26 344.931 64.52 344.731 56.32L344.551 50.8C344.551 49.92 344.951 49.16 345.751 48.52C346.551 47.84 347.451 47.5 348.451 47.5C349.331 47.5 349.971 47.7 350.371 48.1C350.771 48.5 350.971 49.12 350.971 49.96ZM385.056 49.48C386.456 49.6 387.676 49.98 388.716 50.62C389.756 51.22 390.276 52.14 390.276 53.38C390.276 54.3 389.836 55.04 388.956 55.6C388.116 56.12 387.096 56.38 385.896 56.38C384.736 56.38 383.936 56.08 383.496 55.48C383.056 54.88 382.836 54.26 382.836 53.62C382.836 52.42 382.956 51.42 383.196 50.62C383.476 49.82 384.096 49.44 385.056 49.48ZM389.856 76.06V77.8C389.856 79.36 389.896 80.84 389.976 82.24C390.096 83.6 390.236 84.98 390.396 86.38C390.356 86.78 390.056 87.2 389.496 87.64C388.936 88.04 388.436 88.24 387.996 88.24C387.236 88.24 386.456 88.1 385.656 87.82C384.896 87.5 384.436 87.12 384.276 86.68C384.036 85.4 383.916 84.26 383.916 83.26C383.916 79.98 383.816 76.3 383.616 72.22C383.456 68.62 383.376 66.1 383.376 64.66C383.376 63.94 383.736 63.32 384.456 62.8C385.176 62.28 385.936 62.02 386.736 62.02C387.896 62.02 388.696 62.28 389.136 62.8C389.616 63.32 389.856 64.14 389.856 65.26V76.06ZM402.868 66.88C402.548 66.64 402.288 66.4 402.088 66.16C401.888 65.88 401.788 65.4 401.788 64.72C401.788 63.96 402.048 63.38 402.568 62.98C403.128 62.54 403.768 62.32 404.488 62.32C405.888 62.32 407.088 62.68 408.088 63.4C409.128 64.12 409.888 65.12 410.368 66.4C411.248 64.76 412.368 63.64 413.728 63.04C415.088 62.4 416.968 62.08 419.368 62.08C420.328 62.08 421.308 62.38 422.308 62.98C423.348 63.54 424.288 64.24 425.128 65.08C425.808 65.96 426.388 67.06 426.868 68.38C427.348 69.66 427.588 70.82 427.588 71.86C427.588 72.46 427.548 73.44 427.468 74.8C427.388 76.24 427.348 77.38 427.348 78.22C427.348 81.02 427.888 82.74 428.968 83.38C429.128 83.46 429.428 83.56 429.868 83.68C430.308 83.8 430.628 83.92 430.828 84.04C431.068 84.16 431.188 84.34 431.188 84.58C431.228 85.54 430.868 86.34 430.108 86.98C429.388 87.58 428.508 87.88 427.468 87.88C425.908 87.88 424.688 87.46 423.808 86.62C422.928 85.78 422.308 84.5 421.948 82.78C421.748 82.14 421.648 81.2 421.648 79.96C421.648 79.28 421.688 78.18 421.768 76.66C421.888 75.46 421.948 74.18 421.948 72.82C421.948 71.42 421.548 70.2 420.748 69.16C419.948 68.08 418.848 67.54 417.448 67.54C416.608 67.54 415.728 67.8 414.808 68.32C413.888 68.8 413.248 69.4 412.888 70.12C412.288 71.36 411.888 72.62 411.688 73.9C411.208 76.38 410.968 78.76 410.968 81.04C410.968 81.6 411.008 82.68 411.088 84.28C411.088 84.4 411.088 84.7 411.088 85.18C411.088 85.62 411.028 86.04 410.908 86.44C410.828 86.84 410.668 87.2 410.428 87.52C410.268 87.68 409.968 87.84 409.528 88C409.088 88.16 408.708 88.24 408.388 88.24C407.828 88.24 407.128 88 406.288 87.52C405.448 87.04 404.948 86.5 404.788 85.9L404.728 85.06C404.728 84.74 404.768 84.26 404.848 83.62C405.328 80.82 405.568 78.38 405.568 76.3C405.568 75.38 405.548 74.68 405.508 74.2L405.448 71.44C405.448 70.6 405.208 69.8 404.728 69.04C404.248 68.24 403.628 67.52 402.868 66.88Z" fill="black"/>
<path d="M150.4 133.1C150.217 133.1 150.067 133.067 149.95 133C149.833 132.95 149.775 132.875 149.775 132.775C149.775 132.575 150.008 132.425 150.475 132.325C151.092 132.208 151.5 132.025 151.7 131.775C151.9 131.525 152 131.117 152 130.55V119.225C152 118.658 151.925 118.258 151.775 118.025C151.625 117.792 151.242 117.608 150.625 117.475C150.142 117.375 149.9 117.217 149.9 117C149.9 116.9 149.95 116.817 150.05 116.75C150.167 116.683 150.325 116.65 150.525 116.65C150.958 116.65 151.325 116.658 151.625 116.675C151.925 116.692 152.208 116.708 152.475 116.725C152.758 116.742 153.067 116.75 153.4 116.75C153.75 116.75 154.067 116.75 154.35 116.75C154.65 116.733 154.958 116.717 155.275 116.7C155.608 116.683 155.983 116.675 156.4 116.675C156.833 116.675 157.05 116.783 157.05 117C157.05 117.133 156.983 117.233 156.85 117.3C156.733 117.367 156.558 117.425 156.325 117.475C155.692 117.625 155.25 117.833 155 118.1C154.767 118.367 154.65 118.742 154.65 119.225V124C154.65 124.117 154.683 124.192 154.75 124.225C154.833 124.258 154.917 124.275 155 124.275H163.35C163.5 124.275 163.575 124.167 163.575 123.95V119.225C163.575 118.758 163.458 118.392 163.225 118.125C163.008 117.842 162.575 117.625 161.925 117.475C161.675 117.425 161.492 117.367 161.375 117.3C161.258 117.233 161.2 117.133 161.2 117C161.2 116.783 161.408 116.675 161.825 116.675C162.242 116.675 162.625 116.683 162.975 116.7C163.325 116.717 163.658 116.733 163.975 116.75C164.308 116.75 164.65 116.75 165 116.75C165.317 116.75 165.592 116.742 165.825 116.725C166.075 116.708 166.333 116.692 166.6 116.675C166.883 116.658 167.242 116.65 167.675 116.65C167.875 116.65 168.033 116.683 168.15 116.75C168.267 116.817 168.325 116.9 168.325 117C168.325 117.217 168.083 117.375 167.6 117.475C166.983 117.608 166.6 117.808 166.45 118.075C166.3 118.325 166.225 118.7 166.225 119.2V130.525C166.225 131.108 166.308 131.525 166.475 131.775C166.658 132.025 167.05 132.208 167.65 132.325C168.117 132.425 168.35 132.575 168.35 132.775C168.35 132.875 168.283 132.95 168.15 133C168.033 133.067 167.883 133.1 167.7 133.1C167.3 133.1 166.942 133.083 166.625 133.05C166.325 133.033 166.033 133.017 165.75 133C165.467 132.983 165.158 132.975 164.825 132.975C164.475 132.975 164.15 132.983 163.85 133C163.567 133.017 163.258 133.033 162.925 133.05C162.592 133.083 162.217 133.1 161.8 133.1C161.6 133.1 161.442 133.067 161.325 133C161.225 132.95 161.175 132.875 161.175 132.775C161.175 132.642 161.225 132.55 161.325 132.5C161.442 132.433 161.625 132.375 161.875 132.325C162.442 132.208 162.867 132.017 163.15 131.75C163.433 131.483 163.575 131.092 163.575 130.575V125.75C163.575 125.65 163.567 125.567 163.55 125.5C163.533 125.417 163.475 125.375 163.375 125.375H154.85C154.717 125.375 154.65 125.475 154.65 125.675V130.4C154.65 130.9 154.817 131.317 155.15 131.65C155.483 131.983 155.942 132.208 156.525 132.325C156.775 132.375 156.958 132.433 157.075 132.5C157.192 132.55 157.25 132.642 157.25 132.775C157.25 132.875 157.192 132.95 157.075 133C156.958 133.067 156.8 133.1 156.6 133.1C156.183 133.1 155.8 133.083 155.45 133.05C155.1 133.033 154.758 133.017 154.425 133C154.108 132.983 153.767 132.975 153.4 132.975C153.067 132.975 152.75 132.983 152.45 133C152.15 133.017 151.833 133.033 151.5 133.05C151.183 133.083 150.817 133.1 150.4 133.1ZM172.091 133.125C171.891 133.125 171.733 133.1 171.616 133.05C171.499 133 171.441 132.925 171.441 132.825C171.441 132.608 171.683 132.45 172.166 132.35C172.783 132.217 173.224 132.033 173.491 131.8C173.774 131.55 173.916 131.133 173.916 130.55V119.25C173.916 118.683 173.799 118.275 173.566 118.025C173.333 117.775 172.908 117.592 172.291 117.475C172.041 117.425 171.858 117.358 171.741 117.275C171.624 117.192 171.566 117.092 171.566 116.975C171.566 116.875 171.624 116.8 171.741 116.75C171.858 116.683 172.016 116.65 172.216 116.65C172.766 116.65 173.258 116.658 173.691 116.675C174.141 116.692 174.574 116.708 174.991 116.725C175.424 116.742 175.891 116.75 176.391 116.75C177.058 116.75 177.758 116.75 178.491 116.75C179.241 116.733 179.916 116.717 180.516 116.7C181.083 116.7 181.549 116.692 181.916 116.675C182.299 116.642 182.524 116.625 182.591 116.625C182.691 116.625 182.791 116.65 182.891 116.7C183.008 116.733 183.074 116.808 183.091 116.925C183.174 117.442 183.258 117.95 183.341 118.45C183.441 118.933 183.491 119.358 183.491 119.725C183.491 119.892 183.449 120.008 183.366 120.075C183.299 120.125 183.224 120.15 183.141 120.15C183.058 120.15 182.991 120.125 182.941 120.075C182.891 120.025 182.841 119.95 182.791 119.85C182.674 119.517 182.566 119.217 182.466 118.95C182.366 118.667 182.249 118.458 182.116 118.325C181.899 118.092 181.649 117.917 181.366 117.8C181.083 117.683 180.766 117.625 180.416 117.625H177.616C177.399 117.625 177.166 117.708 176.916 117.875C176.683 118.025 176.566 118.242 176.566 118.525V123.625C176.566 123.792 176.616 123.925 176.716 124.025C176.816 124.125 176.933 124.175 177.066 124.175H179.441C179.924 124.175 180.258 124.067 180.441 123.85C180.624 123.633 180.774 123.3 180.891 122.85C181.008 122.517 181.166 122.35 181.366 122.35C181.449 122.35 181.524 122.392 181.591 122.475C181.658 122.542 181.691 122.65 181.691 122.8C181.691 122.9 181.683 123.067 181.666 123.3C181.649 123.533 181.633 123.775 181.616 124.025C181.599 124.275 181.591 124.475 181.591 124.625C181.591 124.808 181.591 125.033 181.591 125.3C181.608 125.55 181.624 125.8 181.641 126.05C181.658 126.3 181.666 126.483 181.666 126.6C181.683 126.75 181.666 126.875 181.616 126.975C181.583 127.058 181.524 127.1 181.441 127.1C181.174 127.1 180.974 126.858 180.841 126.375C180.741 125.942 180.599 125.617 180.416 125.4C180.249 125.183 179.999 125.075 179.666 125.075H177.341C177.074 125.075 176.874 125.117 176.741 125.2C176.624 125.283 176.566 125.458 176.566 125.725V130.5C176.566 131.083 176.691 131.492 176.941 131.725C177.191 131.942 177.574 132.05 178.091 132.05H180.066C180.533 132.05 180.941 132.017 181.291 131.95C181.641 131.883 181.941 131.758 182.191 131.575C182.474 131.375 182.724 131.117 182.941 130.8C183.158 130.483 183.383 130.092 183.616 129.625C183.683 129.525 183.749 129.45 183.816 129.4C183.883 129.333 183.958 129.308 184.041 129.325C184.141 129.325 184.208 129.367 184.241 129.45C184.291 129.517 184.316 129.608 184.316 129.725C184.316 129.908 184.274 130.183 184.191 130.55C184.108 130.917 183.999 131.3 183.866 131.7C183.749 132.1 183.641 132.442 183.541 132.725C183.491 132.842 183.433 132.933 183.366 133C183.299 133.083 183.216 133.125 183.116 133.125C182.516 133.125 181.891 133.117 181.241 133.1C180.591 133.083 179.924 133.067 179.241 133.05C178.558 133.033 177.874 133.017 177.191 133C176.508 132.983 175.833 132.975 175.166 132.975C174.816 132.975 174.483 132.983 174.166 133C173.849 133.033 173.524 133.058 173.191 133.075C172.874 133.108 172.508 133.125 172.091 133.125ZM187 133.125C186.8 133.125 186.633 133.092 186.5 133.025C186.367 132.975 186.3 132.892 186.3 132.775C186.3 132.642 186.367 132.533 186.5 132.45C186.633 132.367 186.817 132.283 187.05 132.2C187.5 132.067 187.908 131.867 188.275 131.6C188.642 131.333 188.942 130.925 189.175 130.375C189.625 129.358 190.042 128.392 190.425 127.475C190.808 126.542 191.175 125.625 191.525 124.725C191.875 123.825 192.233 122.9 192.6 121.95C192.967 120.983 193.342 119.958 193.725 118.875C193.875 118.492 193.983 118.175 194.05 117.925C194.117 117.658 194.158 117.425 194.175 117.225C194.392 117.175 194.592 117.125 194.775 117.075C194.958 117.008 195.158 116.917 195.375 116.8C195.575 116.7 195.725 116.558 195.825 116.375C195.942 116.175 196.033 116.033 196.1 115.95C196.133 115.933 196.167 115.925 196.2 115.925C196.25 115.908 196.292 115.933 196.325 116C196.375 116.083 196.408 116.175 196.425 116.275C196.458 116.375 196.492 116.483 196.525 116.6C196.908 117.817 197.3 119.058 197.7 120.325C198.117 121.575 198.525 122.8 198.925 124C199.325 125.2 199.7 126.317 200.05 127.35C200.4 128.367 200.7 129.258 200.95 130.025C201.133 130.575 201.35 131 201.6 131.3C201.85 131.583 202.117 131.8 202.4 131.95C202.683 132.083 202.992 132.183 203.325 132.25C203.575 132.3 203.758 132.375 203.875 132.475C204.008 132.575 204.075 132.692 204.075 132.825C204.075 132.925 204.008 132.992 203.875 133.025C203.758 133.075 203.608 133.1 203.425 133.1C203.158 133.1 202.808 133.083 202.375 133.05C201.942 133.033 201.492 133.017 201.025 133C200.558 132.983 200.133 132.975 199.75 132.975C199.433 132.975 199.083 132.975 198.7 132.975C198.317 132.975 197.95 132.983 197.6 133C197.267 133.017 196.975 133.025 196.725 133.025C196.525 133.025 196.358 133 196.225 132.95C196.108 132.883 196.05 132.8 196.05 132.7C196.05 132.567 196.125 132.458 196.275 132.375C196.425 132.292 196.6 132.233 196.8 132.2C197.367 132.1 197.775 131.95 198.025 131.75C198.292 131.55 198.4 131.283 198.35 130.95C198.333 130.667 198.275 130.317 198.175 129.9C198.075 129.467 197.958 129.017 197.825 128.55C197.692 128.067 197.567 127.625 197.45 127.225C197.417 127.092 197.358 127.008 197.275 126.975C197.192 126.942 197.05 126.925 196.85 126.925H192.225C192.142 126.925 192.067 126.958 192 127.025C191.933 127.075 191.867 127.183 191.8 127.35C191.75 127.55 191.667 127.808 191.55 128.125C191.45 128.425 191.35 128.75 191.25 129.1C191.15 129.433 191.058 129.75 190.975 130.05C190.908 130.333 190.867 130.542 190.85 130.675C190.8 131.092 190.9 131.425 191.15 131.675C191.417 131.908 191.808 132.092 192.325 132.225C192.825 132.358 193.075 132.525 193.075 132.725C193.075 132.842 193.008 132.925 192.875 132.975C192.758 133.008 192.6 133.025 192.4 133.025C192.083 133.025 191.717 133.017 191.3 133C190.883 132.983 190.442 132.975 189.975 132.975C189.442 132.975 188.925 133 188.425 133.05C187.925 133.1 187.45 133.125 187 133.125ZM192.925 125.9H196.575C196.808 125.9 196.925 125.858 196.925 125.775C196.925 125.725 196.917 125.683 196.9 125.65C196.9 125.617 196.892 125.567 196.875 125.5L195.025 119.575C194.942 119.308 194.875 119.175 194.825 119.175C194.792 119.175 194.733 119.3 194.65 119.55L192.475 125.5C192.442 125.6 192.425 125.667 192.425 125.7C192.425 125.783 192.467 125.842 192.55 125.875C192.65 125.892 192.775 125.9 192.925 125.9ZM206.581 133.125C206.398 133.125 206.248 133.092 206.131 133.025C206.014 132.958 205.956 132.883 205.956 132.8C205.956 132.667 206.023 132.567 206.156 132.5C206.289 132.417 206.398 132.367 206.481 132.35C207.114 132.2 207.581 132.008 207.881 131.775C208.198 131.542 208.356 131.15 208.356 130.6V119.075C208.356 118.675 208.314 118.383 208.231 118.2C208.148 118 207.989 117.85 207.756 117.75C207.539 117.65 207.223 117.558 206.806 117.475C206.323 117.375 206.081 117.208 206.081 116.975C206.081 116.858 206.139 116.775 206.256 116.725C206.389 116.675 206.548 116.65 206.731 116.65C207.148 116.65 207.523 116.658 207.856 116.675C208.189 116.692 208.506 116.708 208.806 116.725C209.106 116.742 209.439 116.75 209.806 116.75C210.189 116.75 210.556 116.75 210.906 116.75C211.256 116.733 211.614 116.717 211.981 116.7C212.348 116.683 212.739 116.675 213.156 116.675C213.356 116.675 213.506 116.7 213.606 116.75C213.723 116.783 213.781 116.858 213.781 116.975C213.781 117.108 213.723 117.217 213.606 117.3C213.489 117.367 213.306 117.425 213.056 117.475C212.423 117.625 211.923 117.792 211.556 117.975C211.189 118.142 211.006 118.467 211.006 118.95V130.525C211.006 131.042 211.114 131.417 211.331 131.65C211.564 131.867 212.031 131.975 212.731 131.975H215.631C216.064 131.975 216.439 131.908 216.756 131.775C217.089 131.642 217.348 131.492 217.531 131.325C217.848 131.042 218.089 130.775 218.256 130.525C218.439 130.258 218.631 129.908 218.831 129.475C218.914 129.292 219.006 129.117 219.106 128.95C219.206 128.783 219.314 128.7 219.431 128.7C219.548 128.7 219.631 128.758 219.681 128.875C219.731 128.975 219.756 129.075 219.756 129.175C219.756 129.208 219.748 129.25 219.731 129.3C219.714 129.35 219.706 129.4 219.706 129.45C219.589 129.9 219.481 130.3 219.381 130.65C219.281 131 219.198 131.333 219.131 131.65C219.081 131.967 219.039 132.308 219.006 132.675C218.989 132.792 218.956 132.9 218.906 133C218.856 133.083 218.764 133.125 218.631 133.125C217.981 133.125 217.289 133.117 216.556 133.1C215.823 133.083 215.081 133.067 214.331 133.05C213.581 133.05 212.839 133.042 212.106 133.025C211.389 133.008 210.698 133 210.031 133C209.631 133 209.181 133.008 208.681 133.025C208.198 133.042 207.748 133.058 207.331 133.075C206.931 133.108 206.681 133.125 206.581 133.125ZM223.8 133.1C223.617 133.1 223.459 133.075 223.325 133.025C223.192 132.992 223.125 132.917 223.125 132.8C223.125 132.683 223.192 132.592 223.325 132.525C223.459 132.442 223.642 132.375 223.875 132.325C224.509 132.208 224.984 132.017 225.3 131.75C225.617 131.483 225.775 131.058 225.775 130.475V120.575C225.775 119.842 225.759 119.292 225.725 118.925C225.692 118.542 225.642 118.283 225.575 118.15C225.509 118 225.417 117.908 225.3 117.875C225.1 117.825 224.875 117.8 224.625 117.8C224.375 117.783 224.084 117.775 223.75 117.775H222.775C222.342 117.775 221.909 117.875 221.475 118.075C221.059 118.258 220.742 118.525 220.525 118.875C220.459 118.975 220.359 119.117 220.225 119.3C220.109 119.467 219.975 119.617 219.825 119.75C219.675 119.867 219.525 119.925 219.375 119.925C219.292 119.925 219.225 119.892 219.175 119.825C219.142 119.758 219.125 119.675 219.125 119.575C219.125 119.392 219.175 119.208 219.275 119.025C219.542 118.492 219.734 118.025 219.85 117.625C219.967 117.225 220.059 116.75 220.125 116.2C220.159 115.933 220.225 115.767 220.325 115.7C220.425 115.633 220.525 115.6 220.625 115.6C220.709 115.6 220.817 115.708 220.95 115.925C221.1 116.125 221.217 116.292 221.3 116.425C221.434 116.575 221.684 116.692 222.05 116.775C222.417 116.858 222.759 116.9 223.075 116.9L232.1 116.875C232.617 116.875 233.042 116.842 233.375 116.775C233.725 116.708 234.009 116.625 234.225 116.525C234.459 116.408 234.642 116.283 234.775 116.15C234.909 116 235.084 115.925 235.3 115.925C235.367 115.925 235.417 115.983 235.45 116.1C235.484 116.2 235.5 116.317 235.5 116.45C235.5 116.517 235.492 116.617 235.475 116.75C235.459 116.883 235.442 116.992 235.425 117.075C235.359 117.392 235.292 117.642 235.225 117.825C235.175 118.008 235.134 118.183 235.1 118.35C235.084 118.5 235.075 118.7 235.075 118.95V119.3C235.075 119.5 235.042 119.692 234.975 119.875C234.909 120.058 234.809 120.15 234.675 120.15C234.542 120.15 234.434 120.067 234.35 119.9C234.267 119.717 234.184 119.458 234.1 119.125C234 118.692 233.775 118.358 233.425 118.125C233.092 117.892 232.534 117.775 231.75 117.775H229.65C229.317 117.775 229.059 117.833 228.875 117.95C228.692 118.05 228.567 118.3 228.5 118.7C228.45 119.083 228.425 119.708 228.425 120.575V130.475C228.425 131.042 228.584 131.458 228.9 131.725C229.234 131.992 229.717 132.192 230.35 132.325C230.584 132.375 230.759 132.433 230.875 132.5C231.009 132.567 231.075 132.667 231.075 132.8C231.075 132.9 231.017 132.975 230.9 133.025C230.784 133.075 230.625 133.1 230.425 133.1C230.009 133.1 229.625 133.083 229.275 133.05C228.925 133.033 228.584 133.017 228.25 133C227.917 132.983 227.567 132.975 227.2 132.975C226.8 132.975 226.425 132.983 226.075 133C225.725 133.017 225.367 133.033 225 133.05C224.634 133.083 224.234 133.1 223.8 133.1ZM238.393 133.1C238.21 133.1 238.06 133.067 237.943 133C237.826 132.95 237.768 132.875 237.768 132.775C237.768 132.575 238.001 132.425 238.468 132.325C239.085 132.208 239.493 132.025 239.693 131.775C239.893 131.525 239.993 131.117 239.993 130.55V119.225C239.993 118.658 239.918 118.258 239.768 118.025C239.618 117.792 239.235 117.608 238.618 117.475C238.135 117.375 237.893 117.217 237.893 117C237.893 116.9 237.943 116.817 238.043 116.75C238.16 116.683 238.318 116.65 238.518 116.65C238.951 116.65 239.318 116.658 239.618 116.675C239.918 116.692 240.201 116.708 240.468 116.725C240.751 116.742 241.06 116.75 241.393 116.75C241.743 116.75 242.06 116.75 242.343 116.75C242.643 116.733 242.951 116.717 243.268 116.7C243.601 116.683 243.976 116.675 244.393 116.675C244.826 116.675 245.043 116.783 245.043 117C245.043 117.133 244.976 117.233 244.843 117.3C244.726 117.367 244.551 117.425 244.318 117.475C243.685 117.625 243.243 117.833 242.993 118.1C242.76 118.367 242.643 118.742 242.643 119.225V124C242.643 124.117 242.676 124.192 242.743 124.225C242.826 124.258 242.91 124.275 242.993 124.275H251.343C251.493 124.275 251.568 124.167 251.568 123.95V119.225C251.568 118.758 251.451 118.392 251.218 118.125C251.001 117.842 250.568 117.625 249.918 117.475C249.668 117.425 249.485 117.367 249.368 117.3C249.251 117.233 249.193 117.133 249.193 117C249.193 116.783 249.401 116.675 249.818 116.675C250.235 116.675 250.618 116.683 250.968 116.7C251.318 116.717 251.651 116.733 251.968 116.75C252.301 116.75 252.643 116.75 252.993 116.75C253.31 116.75 253.585 116.742 253.818 116.725C254.068 116.708 254.326 116.692 254.593 116.675C254.876 116.658 255.235 116.65 255.668 116.65C255.868 116.65 256.026 116.683 256.143 116.75C256.26 116.817 256.318 116.9 256.318 117C256.318 117.217 256.076 117.375 255.593 117.475C254.976 117.608 254.593 117.808 254.443 118.075C254.293 118.325 254.218 118.7 254.218 119.2V130.525C254.218 131.108 254.301 131.525 254.468 131.775C254.651 132.025 255.043 132.208 255.643 132.325C256.11 132.425 256.343 132.575 256.343 132.775C256.343 132.875 256.276 132.95 256.143 133C256.026 133.067 255.876 133.1 255.693 133.1C255.293 133.1 254.935 133.083 254.618 133.05C254.318 133.033 254.026 133.017 253.743 133C253.46 132.983 253.151 132.975 252.818 132.975C252.468 132.975 252.143 132.983 251.843 133C251.56 133.017 251.251 133.033 250.918 133.05C250.585 133.083 250.21 133.1 249.793 133.1C249.593 133.1 249.435 133.067 249.318 133C249.218 132.95 249.168 132.875 249.168 132.775C249.168 132.642 249.218 132.55 249.318 132.5C249.435 132.433 249.618 132.375 249.868 132.325C250.435 132.208 250.86 132.017 251.143 131.75C251.426 131.483 251.568 131.092 251.568 130.575V125.75C251.568 125.65 251.56 125.567 251.543 125.5C251.526 125.417 251.468 125.375 251.368 125.375H242.843C242.71 125.375 242.643 125.475 242.643 125.675V130.4C242.643 130.9 242.81 131.317 243.143 131.65C243.476 131.983 243.935 132.208 244.518 132.325C244.768 132.375 244.951 132.433 245.068 132.5C245.185 132.55 245.243 132.642 245.243 132.775C245.243 132.875 245.185 132.95 245.068 133C244.951 133.067 244.793 133.1 244.593 133.1C244.176 133.1 243.793 133.083 243.443 133.05C243.093 133.033 242.751 133.017 242.418 133C242.101 132.983 241.76 132.975 241.393 132.975C241.06 132.975 240.743 132.983 240.443 133C240.143 133.017 239.826 133.033 239.493 133.05C239.176 133.083 238.81 133.1 238.393 133.1ZM270.756 133.375C269.956 133.375 269.223 133.233 268.556 132.95C267.89 132.65 267.356 132.233 266.956 131.7C266.573 131.15 266.381 130.517 266.381 129.8C266.381 128.583 266.756 127.542 267.506 126.675C268.256 125.792 269.24 125.067 270.456 124.5L270.956 124.275L270.656 123.925C270.506 123.742 270.298 123.517 270.031 123.25C269.765 122.967 269.523 122.642 269.306 122.275C269.106 121.892 269.006 121.458 269.006 120.975C269.006 120.392 269.181 119.875 269.531 119.425C269.898 118.975 270.373 118.633 270.956 118.4C271.54 118.15 272.173 118.025 272.856 118.025C273.59 118.025 274.206 118.175 274.706 118.475C275.223 118.758 275.615 119.125 275.881 119.575C276.148 120.025 276.281 120.483 276.281 120.95C276.298 121.633 276.065 122.2 275.581 122.65C275.115 123.1 274.473 123.475 273.656 123.775L273.231 123.925L273.606 124.35C274.19 124.95 274.731 125.5 275.231 126C275.731 126.5 276.223 127.075 276.706 127.725L277.056 128.175L277.456 127.75C277.84 127.367 278.206 126.942 278.556 126.475C278.923 126.008 279.223 125.583 279.456 125.2C279.69 124.8 279.806 124.525 279.806 124.375C279.806 124.225 279.74 124.075 279.606 123.925C279.473 123.775 279.306 123.675 279.106 123.625C279.04 123.592 278.956 123.55 278.856 123.5C278.773 123.433 278.731 123.367 278.731 123.3C278.731 123.15 278.806 123.058 278.956 123.025C279.123 122.992 279.256 122.975 279.356 122.975C279.456 122.975 279.631 122.992 279.881 123.025C280.131 123.042 280.39 123.067 280.656 123.1C280.94 123.117 281.165 123.125 281.331 123.125C281.615 123.125 281.923 123.092 282.256 123.025C282.59 122.958 282.915 122.892 283.231 122.825C283.548 122.742 283.815 122.7 284.031 122.7C284.098 122.7 284.173 122.733 284.256 122.8C284.34 122.85 284.381 122.9 284.381 122.95C284.381 123.067 284.306 123.183 284.156 123.3C284.006 123.417 283.848 123.483 283.681 123.5C283.248 123.55 282.865 123.675 282.531 123.875C282.198 124.058 281.915 124.258 281.681 124.475C281.565 124.558 281.356 124.75 281.056 125.05C280.773 125.35 280.44 125.7 280.056 126.1C279.673 126.483 279.298 126.867 278.931 127.25C278.565 127.633 278.24 127.958 277.956 128.225C277.69 128.492 277.523 128.658 277.456 128.725L277.881 129.325C278.415 130.042 278.931 130.625 279.431 131.075C279.931 131.525 280.481 131.75 281.081 131.75C281.398 131.75 281.723 131.725 282.056 131.675C282.39 131.608 282.715 131.5 283.031 131.35C283.098 131.317 283.173 131.283 283.256 131.25C283.34 131.217 283.423 131.2 283.506 131.2C283.623 131.2 283.706 131.225 283.756 131.275C283.823 131.308 283.856 131.392 283.856 131.525C283.856 131.692 283.673 131.925 283.306 132.225C282.956 132.525 282.515 132.792 281.981 133.025C281.448 133.258 280.898 133.375 280.331 133.375C279.698 133.375 279.156 133.275 278.706 133.075C278.273 132.892 277.873 132.608 277.506 132.225C277.156 131.825 276.765 131.317 276.331 130.7L275.981 130.175L275.831 130.325C275.315 130.892 274.806 131.408 274.306 131.875C273.806 132.342 273.273 132.708 272.706 132.975C272.14 133.242 271.49 133.375 270.756 133.375ZM271.806 131.5C272.49 131.5 273.106 131.367 273.656 131.1C274.223 130.833 274.781 130.417 275.331 129.85L275.531 129.65L275.206 129.175C274.756 128.525 274.223 127.875 273.606 127.225C273.006 126.575 272.373 125.883 271.706 125.15L271.406 124.8L270.906 125.025C270.306 125.275 269.848 125.6 269.531 126C269.231 126.383 269.031 126.8 268.931 127.25C268.831 127.7 268.781 128.15 268.781 128.6C268.781 129.433 269.056 130.125 269.606 130.675C270.173 131.225 270.906 131.5 271.806 131.5ZM272.831 123.45L273.131 123.275C273.531 123.075 273.823 122.75 274.006 122.3C274.19 121.85 274.281 121.383 274.281 120.9C274.281 120.35 274.156 119.858 273.906 119.425C273.656 118.975 273.265 118.75 272.731 118.75C272.298 118.75 271.915 118.9 271.581 119.2C271.248 119.483 271.081 119.833 271.081 120.25C271.081 120.633 271.115 120.967 271.181 121.25C271.265 121.533 271.406 121.808 271.606 122.075C271.806 122.342 272.073 122.65 272.406 123L272.831 123.45ZM301.766 133.4C301.699 133.4 301.632 133.325 301.566 133.175C301.499 133.042 301.432 132.892 301.366 132.725L295.641 119.15C295.457 118.733 295.232 118.392 294.966 118.125C294.699 117.842 294.341 117.642 293.891 117.525C293.657 117.442 293.466 117.367 293.316 117.3C293.166 117.217 293.091 117.108 293.091 116.975C293.091 116.858 293.157 116.783 293.291 116.75C293.441 116.7 293.607 116.675 293.791 116.675C294.207 116.675 294.632 116.692 295.066 116.725C295.516 116.742 295.957 116.75 296.391 116.75C296.874 116.75 297.341 116.742 297.791 116.725C298.241 116.692 298.641 116.675 298.991 116.675C299.207 116.675 299.382 116.7 299.516 116.75C299.649 116.8 299.716 116.875 299.716 116.975C299.716 117.108 299.649 117.208 299.516 117.275C299.382 117.342 299.182 117.417 298.916 117.5C298.682 117.55 298.532 117.65 298.466 117.8C298.416 117.95 298.391 118.117 298.391 118.3C298.391 118.517 298.416 118.725 298.466 118.925C298.516 119.125 298.549 119.233 298.566 119.25C298.932 120.15 299.274 121 299.591 121.8C299.907 122.583 300.224 123.35 300.541 124.1C300.857 124.833 301.182 125.592 301.516 126.375C301.849 127.142 302.207 127.967 302.591 128.85C302.674 129.033 302.741 129.125 302.791 129.125C302.857 129.125 302.924 129.042 302.991 128.875L304.741 124.85C304.791 124.733 304.824 124.633 304.841 124.55C304.874 124.45 304.891 124.367 304.891 124.3C304.891 124.217 304.874 124.125 304.841 124.025C304.807 123.925 304.766 123.808 304.716 123.675L302.891 119.425C302.691 118.942 302.374 118.533 301.941 118.2C301.524 117.867 301.091 117.642 300.641 117.525C300.407 117.442 300.224 117.367 300.091 117.3C299.957 117.217 299.891 117.108 299.891 116.975C299.891 116.858 299.949 116.783 300.066 116.75C300.199 116.7 300.357 116.675 300.541 116.675C300.841 116.675 301.141 116.683 301.441 116.7C301.757 116.717 302.074 116.733 302.391 116.75C302.707 116.75 303.016 116.75 303.316 116.75C303.732 116.75 304.132 116.742 304.516 116.725C304.916 116.692 305.282 116.675 305.616 116.675C305.849 116.675 306.032 116.7 306.166 116.75C306.316 116.8 306.391 116.875 306.391 116.975C306.391 117.108 306.316 117.217 306.166 117.3C306.032 117.367 305.882 117.442 305.716 117.525C305.566 117.608 305.457 117.725 305.391 117.875C305.291 117.925 305.232 117.992 305.216 118.075C305.216 118.158 305.232 118.242 305.266 118.325C305.316 118.425 305.382 118.608 305.466 118.875C305.566 119.142 305.674 119.433 305.791 119.75C305.924 120.05 306.041 120.342 306.141 120.625C306.257 120.908 306.349 121.117 306.416 121.25C306.516 121.467 306.591 121.567 306.641 121.55C306.707 121.533 306.782 121.433 306.866 121.25C306.982 120.967 307.116 120.642 307.266 120.275C307.416 119.892 307.549 119.525 307.666 119.175C307.782 118.808 307.866 118.558 307.916 118.425C307.949 118.342 307.966 118.242 307.966 118.125C307.966 117.908 307.882 117.75 307.716 117.65C307.549 117.55 307.374 117.458 307.191 117.375C307.024 117.275 306.941 117.15 306.941 117C306.941 116.9 306.991 116.825 307.091 116.775C307.207 116.725 307.382 116.7 307.616 116.7C307.999 116.7 308.257 116.708 308.391 116.725C308.541 116.742 308.732 116.75 308.966 116.75C309.232 116.75 309.474 116.733 309.691 116.7C309.907 116.667 310.199 116.65 310.566 116.65C310.766 116.65 310.932 116.675 311.066 116.725C311.216 116.775 311.291 116.858 311.291 116.975C311.291 117.108 311.224 117.208 311.091 117.275C310.957 117.342 310.766 117.408 310.516 117.475C309.999 117.592 309.632 117.758 309.416 117.975C309.216 118.175 309.007 118.45 308.791 118.8C308.691 119.017 308.549 119.308 308.366 119.675C308.199 120.042 308.024 120.433 307.841 120.85C307.657 121.267 307.491 121.658 307.341 122.025C307.274 122.175 307.232 122.358 307.216 122.575C307.199 122.775 307.216 122.942 307.266 123.075L309.591 128.925C309.641 129.042 309.691 129.083 309.741 129.05C309.791 129 309.841 128.925 309.891 128.825C310.374 127.608 310.891 126.175 311.441 124.525C312.007 122.875 312.566 121.2 313.116 119.5C313.199 119.25 313.249 119.05 313.266 118.9C313.299 118.733 313.316 118.592 313.316 118.475C313.299 118.242 313.232 118.042 313.116 117.875C313.016 117.692 312.832 117.575 312.566 117.525C312.399 117.475 312.224 117.408 312.041 117.325C311.857 117.242 311.766 117.133 311.766 117C311.766 116.9 311.832 116.825 311.966 116.775C312.116 116.725 312.291 116.7 312.491 116.7C312.891 116.7 313.216 116.708 313.466 116.725C313.716 116.742 313.982 116.75 314.266 116.75C314.632 116.733 314.991 116.717 315.341 116.7C315.691 116.667 316.049 116.65 316.416 116.65C316.632 116.65 316.816 116.675 316.966 116.725C317.116 116.758 317.191 116.842 317.191 116.975C317.191 117.092 317.116 117.192 316.966 117.275C316.816 117.342 316.624 117.408 316.391 117.475C316.007 117.558 315.682 117.717 315.416 117.95C315.149 118.167 314.941 118.417 314.791 118.7C314.641 118.983 314.507 119.25 314.391 119.5L309.491 132.775C309.457 132.875 309.399 132.992 309.316 133.125C309.232 133.258 309.141 133.325 309.041 133.325C308.957 133.325 308.866 133.275 308.766 133.175C308.682 133.092 308.616 132.983 308.566 132.85C308.216 132.05 307.891 131.3 307.591 130.6C307.291 129.883 306.982 129.133 306.666 128.35C306.366 127.567 305.999 126.683 305.566 125.7C305.516 125.583 305.466 125.533 305.416 125.55C305.382 125.567 305.332 125.65 305.266 125.8C304.899 126.65 304.557 127.433 304.241 128.15C303.924 128.85 303.607 129.567 303.291 130.3C302.991 131.033 302.666 131.833 302.316 132.7C302.249 132.867 302.166 133.025 302.066 133.175C301.982 133.325 301.882 133.4 301.766 133.4ZM319.844 133.125C319.644 133.125 319.486 133.1 319.369 133.05C319.252 133 319.194 132.925 319.194 132.825C319.194 132.608 319.436 132.45 319.919 132.35C320.536 132.217 320.977 132.033 321.244 131.8C321.527 131.55 321.669 131.133 321.669 130.55V119.25C321.669 118.683 321.552 118.275 321.319 118.025C321.086 117.775 320.661 117.592 320.044 117.475C319.794 117.425 319.611 117.358 319.494 117.275C319.377 117.192 319.319 117.092 319.319 116.975C319.319 116.875 319.377 116.8 319.494 116.75C319.611 116.683 319.769 116.65 319.969 116.65C320.519 116.65 321.011 116.658 321.444 116.675C321.894 116.692 322.327 116.708 322.744 116.725C323.177 116.742 323.644 116.75 324.144 116.75C324.811 116.75 325.511 116.75 326.244 116.75C326.994 116.733 327.669 116.717 328.269 116.7C328.836 116.7 329.302 116.692 329.669 116.675C330.052 116.642 330.277 116.625 330.344 116.625C330.444 116.625 330.544 116.65 330.644 116.7C330.761 116.733 330.827 116.808 330.844 116.925C330.927 117.442 331.011 117.95 331.094 118.45C331.194 118.933 331.244 119.358 331.244 119.725C331.244 119.892 331.202 120.008 331.119 120.075C331.052 120.125 330.977 120.15 330.894 120.15C330.811 120.15 330.744 120.125 330.694 120.075C330.644 120.025 330.594 119.95 330.544 119.85C330.427 119.517 330.319 119.217 330.219 118.95C330.119 118.667 330.002 118.458 329.869 118.325C329.652 118.092 329.402 117.917 329.119 117.8C328.836 117.683 328.519 117.625 328.169 117.625H325.369C325.152 117.625 324.919 117.708 324.669 117.875C324.436 118.025 324.319 118.242 324.319 118.525V123.625C324.319 123.792 324.369 123.925 324.469 124.025C324.569 124.125 324.686 124.175 324.819 124.175H327.194C327.677 124.175 328.011 124.067 328.194 123.85C328.377 123.633 328.527 123.3 328.644 122.85C328.761 122.517 328.919 122.35 329.119 122.35C329.202 122.35 329.277 122.392 329.344 122.475C329.411 122.542 329.444 122.65 329.444 122.8C329.444 122.9 329.436 123.067 329.419 123.3C329.402 123.533 329.386 123.775 329.369 124.025C329.352 124.275 329.344 124.475 329.344 124.625C329.344 124.808 329.344 125.033 329.344 125.3C329.361 125.55 329.377 125.8 329.394 126.05C329.411 126.3 329.419 126.483 329.419 126.6C329.436 126.75 329.419 126.875 329.369 126.975C329.336 127.058 329.277 127.1 329.194 127.1C328.927 127.1 328.727 126.858 328.594 126.375C328.494 125.942 328.352 125.617 328.169 125.4C328.002 125.183 327.752 125.075 327.419 125.075H325.094C324.827 125.075 324.627 125.117 324.494 125.2C324.377 125.283 324.319 125.458 324.319 125.725V130.5C324.319 131.083 324.444 131.492 324.694 131.725C324.944 131.942 325.327 132.05 325.844 132.05H327.819C328.286 132.05 328.694 132.017 329.044 131.95C329.394 131.883 329.694 131.758 329.944 131.575C330.227 131.375 330.477 131.117 330.694 130.8C330.911 130.483 331.136 130.092 331.369 129.625C331.436 129.525 331.502 129.45 331.569 129.4C331.636 129.333 331.711 129.308 331.794 129.325C331.894 129.325 331.961 129.367 331.994 129.45C332.044 129.517 332.069 129.608 332.069 129.725C332.069 129.908 332.027 130.183 331.944 130.55C331.861 130.917 331.752 131.3 331.619 131.7C331.502 132.1 331.394 132.442 331.294 132.725C331.244 132.842 331.186 132.933 331.119 133C331.052 133.083 330.969 133.125 330.869 133.125C330.269 133.125 329.644 133.117 328.994 133.1C328.344 133.083 327.677 133.067 326.994 133.05C326.311 133.033 325.627 133.017 324.944 133C324.261 132.983 323.586 132.975 322.919 132.975C322.569 132.975 322.236 132.983 321.919 133C321.602 133.033 321.277 133.058 320.944 133.075C320.627 133.108 320.261 133.125 319.844 133.125ZM335.378 133.125C335.195 133.125 335.045 133.092 334.928 133.025C334.811 132.958 334.753 132.883 334.753 132.8C334.753 132.667 334.82 132.567 334.953 132.5C335.086 132.417 335.195 132.367 335.278 132.35C335.911 132.2 336.378 132.008 336.678 131.775C336.995 131.542 337.153 131.15 337.153 130.6V119.075C337.153 118.675 337.111 118.383 337.028 118.2C336.945 118 336.786 117.85 336.553 117.75C336.336 117.65 336.02 117.558 335.603 117.475C335.12 117.375 334.878 117.208 334.878 116.975C334.878 116.858 334.936 116.775 335.053 116.725C335.186 116.675 335.345 116.65 335.528 116.65C335.945 116.65 336.32 116.658 336.653 116.675C336.986 116.692 337.303 116.708 337.603 116.725C337.903 116.742 338.236 116.75 338.603 116.75C338.986 116.75 339.353 116.75 339.703 116.75C340.053 116.733 340.411 116.717 340.778 116.7C341.145 116.683 341.536 116.675 341.953 116.675C342.153 116.675 342.303 116.7 342.403 116.75C342.52 116.783 342.578 116.858 342.578 116.975C342.578 117.108 342.52 117.217 342.403 117.3C342.286 117.367 342.103 117.425 341.853 117.475C341.22 117.625 340.72 117.792 340.353 117.975C339.986 118.142 339.803 118.467 339.803 118.95V130.525C339.803 131.042 339.911 131.417 340.128 131.65C340.361 131.867 340.828 131.975 341.528 131.975H344.428C344.861 131.975 345.236 131.908 345.553 131.775C345.886 131.642 346.145 131.492 346.328 131.325C346.645 131.042 346.886 130.775 347.053 130.525C347.236 130.258 347.428 129.908 347.628 129.475C347.711 129.292 347.803 129.117 347.903 128.95C348.003 128.783 348.111 128.7 348.228 128.7C348.345 128.7 348.428 128.758 348.478 128.875C348.528 128.975 348.553 129.075 348.553 129.175C348.553 129.208 348.545 129.25 348.528 129.3C348.511 129.35 348.503 129.4 348.503 129.45C348.386 129.9 348.278 130.3 348.178 130.65C348.078 131 347.995 131.333 347.928 131.65C347.878 131.967 347.836 132.308 347.803 132.675C347.786 132.792 347.753 132.9 347.703 133C347.653 133.083 347.561 133.125 347.428 133.125C346.778 133.125 346.086 133.117 345.353 133.1C344.62 133.083 343.878 133.067 343.128 133.05C342.378 133.05 341.636 133.042 340.903 133.025C340.186 133.008 339.495 133 338.828 133C338.428 133 337.978 133.008 337.478 133.025C336.995 133.042 336.545 133.058 336.128 133.075C335.728 133.108 335.478 133.125 335.378 133.125ZM351.502 133.125C351.319 133.125 351.169 133.092 351.052 133.025C350.935 132.958 350.877 132.883 350.877 132.8C350.877 132.667 350.944 132.567 351.077 132.5C351.21 132.417 351.319 132.367 351.402 132.35C352.035 132.2 352.502 132.008 352.802 131.775C353.119 131.542 353.277 131.15 353.277 130.6V119.075C353.277 118.675 353.235 118.383 353.152 118.2C353.069 118 352.91 117.85 352.677 117.75C352.46 117.65 352.144 117.558 351.727 117.475C351.244 117.375 351.002 117.208 351.002 116.975C351.002 116.858 351.06 116.775 351.177 116.725C351.31 116.675 351.469 116.65 351.652 116.65C352.069 116.65 352.444 116.658 352.777 116.675C353.11 116.692 353.427 116.708 353.727 116.725C354.027 116.742 354.36 116.75 354.727 116.75C355.11 116.75 355.477 116.75 355.827 116.75C356.177 116.733 356.535 116.717 356.902 116.7C357.269 116.683 357.66 116.675 358.077 116.675C358.277 116.675 358.427 116.7 358.527 116.75C358.644 116.783 358.702 116.858 358.702 116.975C358.702 117.108 358.644 117.217 358.527 117.3C358.41 117.367 358.227 117.425 357.977 117.475C357.344 117.625 356.844 117.792 356.477 117.975C356.11 118.142 355.927 118.467 355.927 118.95V130.525C355.927 131.042 356.035 131.417 356.252 131.65C356.485 131.867 356.952 131.975 357.652 131.975H360.552C360.985 131.975 361.36 131.908 361.677 131.775C362.01 131.642 362.269 131.492 362.452 131.325C362.769 131.042 363.01 130.775 363.177 130.525C363.36 130.258 363.552 129.908 363.752 129.475C363.835 129.292 363.927 129.117 364.027 128.95C364.127 128.783 364.235 128.7 364.352 128.7C364.469 128.7 364.552 128.758 364.602 128.875C364.652 128.975 364.677 129.075 364.677 129.175C364.677 129.208 364.669 129.25 364.652 129.3C364.635 129.35 364.627 129.4 364.627 129.45C364.51 129.9 364.402 130.3 364.302 130.65C364.202 131 364.119 131.333 364.052 131.65C364.002 131.967 363.96 132.308 363.927 132.675C363.91 132.792 363.877 132.9 363.827 133C363.777 133.083 363.685 133.125 363.552 133.125C362.902 133.125 362.21 133.117 361.477 133.1C360.744 133.083 360.002 133.067 359.252 133.05C358.502 133.05 357.76 133.042 357.027 133.025C356.31 133.008 355.619 133 354.952 133C354.552 133 354.102 133.008 353.602 133.025C353.119 133.042 352.669 133.058 352.252 133.075C351.852 133.108 351.602 133.125 351.502 133.125ZM383.176 133.45C383.009 133.45 382.693 133.317 382.226 133.05C381.776 132.8 381.334 132.383 380.901 131.8C380.718 131.6 380.434 131.283 380.051 130.85C379.684 130.4 379.243 129.883 378.726 129.3C378.226 128.717 377.684 128.092 377.101 127.425C376.534 126.758 375.959 126.1 375.376 125.45C374.809 124.783 374.268 124.158 373.751 123.575C373.251 122.992 372.801 122.475 372.401 122.025C372.018 121.575 371.726 121.25 371.526 121.05C371.443 120.933 371.359 120.842 371.276 120.775C371.209 120.708 371.143 120.675 371.076 120.675C371.009 120.675 370.959 120.742 370.926 120.875C370.893 120.992 370.876 121.1 370.876 121.2C370.859 122 370.851 122.925 370.851 123.975C370.851 125.025 370.843 126.108 370.826 127.225C370.826 128.325 370.826 129.358 370.826 130.325C370.826 130.808 370.959 131.233 371.226 131.6C371.493 131.95 371.943 132.192 372.576 132.325C372.809 132.375 372.993 132.433 373.126 132.5C373.276 132.567 373.351 132.667 373.351 132.8C373.351 132.9 373.284 132.975 373.151 133.025C373.018 133.075 372.851 133.1 372.651 133.1C372.201 133.1 371.851 133.083 371.601 133.05C371.368 133.033 371.151 133.017 370.951 133C370.751 133 370.484 133 370.151 133C369.834 133 369.559 133.008 369.326 133.025C369.109 133.042 368.893 133.058 368.676 133.075C368.459 133.092 368.193 133.1 367.876 133.1C367.693 133.1 367.526 133.075 367.376 133.025C367.243 132.992 367.176 132.917 367.176 132.8C367.176 132.683 367.243 132.592 367.376 132.525C367.509 132.442 367.701 132.367 367.951 132.3C368.401 132.167 368.734 131.925 368.951 131.575C369.168 131.208 369.293 130.775 369.326 130.275C369.393 129.642 369.459 128.808 369.526 127.775C369.609 126.742 369.676 125.583 369.726 124.3C369.776 123.017 369.801 121.692 369.801 120.325C369.801 119.442 369.576 118.808 369.126 118.425C368.676 118.042 368.101 117.733 367.401 117.5C367.318 117.467 367.168 117.4 366.951 117.3C366.751 117.2 366.651 117.075 366.651 116.925C366.651 116.775 366.726 116.675 366.876 116.625C367.026 116.575 367.151 116.55 367.251 116.55C367.684 116.567 368.059 116.583 368.376 116.6C368.709 116.6 369.026 116.608 369.326 116.625C369.626 116.642 369.943 116.658 370.276 116.675C370.609 116.675 371.001 116.675 371.451 116.675C371.601 116.675 371.718 116.717 371.801 116.8C371.884 116.867 371.959 116.95 372.026 117.05C372.209 117.267 372.493 117.608 372.876 118.075C373.276 118.542 373.734 119.092 374.251 119.725C374.784 120.358 375.351 121.033 375.951 121.75C376.551 122.45 377.151 123.158 377.751 123.875C378.351 124.592 378.918 125.267 379.451 125.9C379.984 126.533 380.443 127.083 380.826 127.55C381.226 128 381.509 128.325 381.676 128.525C381.743 128.592 381.826 128.683 381.926 128.8C382.043 128.917 382.143 128.975 382.226 128.975C382.376 128.975 382.459 128.817 382.476 128.5C382.476 128.167 382.476 127.667 382.476 127C382.476 126.333 382.476 125.558 382.476 124.675C382.493 123.792 382.501 122.867 382.501 121.9C382.501 120.917 382.493 119.942 382.476 118.975C382.459 118.608 382.284 118.3 381.951 118.05C381.618 117.783 381.259 117.608 380.876 117.525C380.643 117.492 380.426 117.433 380.226 117.35C380.026 117.267 379.926 117.158 379.926 117.025C379.926 116.925 380.026 116.85 380.226 116.8C380.426 116.75 380.618 116.725 380.801 116.725C381.051 116.725 381.268 116.725 381.451 116.725C381.651 116.725 381.843 116.725 382.026 116.725C382.209 116.725 382.393 116.725 382.576 116.725C382.959 116.725 383.268 116.725 383.501 116.725C383.734 116.708 383.984 116.692 384.251 116.675C384.534 116.658 384.918 116.65 385.401 116.65C385.601 116.65 385.759 116.675 385.876 116.725C386.009 116.775 386.076 116.858 386.076 116.975C386.076 117.208 385.818 117.375 385.301 117.475C384.701 117.592 384.293 117.75 384.076 117.95C383.859 118.133 383.743 118.442 383.726 118.875C383.726 119.142 383.718 119.583 383.701 120.2C383.684 120.8 383.668 121.508 383.651 122.325C383.651 123.142 383.643 124 383.626 124.9C383.609 125.8 383.601 126.683 383.601 127.55C383.601 128.417 383.601 129.2 383.601 129.9C383.601 130.3 383.618 130.692 383.651 131.075C383.684 131.442 383.709 131.767 383.726 132.05C383.759 132.317 383.776 132.517 383.776 132.65C383.776 132.967 383.718 133.175 383.601 133.275C383.484 133.392 383.343 133.45 383.176 133.45ZM389.247 133.125C389.047 133.125 388.889 133.1 388.772 133.05C388.656 133 388.597 132.925 388.597 132.825C388.597 132.608 388.839 132.45 389.322 132.35C389.939 132.217 390.381 132.033 390.647 131.8C390.931 131.55 391.072 131.133 391.072 130.55V119.25C391.072 118.683 390.956 118.275 390.722 118.025C390.489 117.775 390.064 117.592 389.447 117.475C389.197 117.425 389.014 117.358 388.897 117.275C388.781 117.192 388.722 117.092 388.722 116.975C388.722 116.875 388.781 116.8 388.897 116.75C389.014 116.683 389.172 116.65 389.372 116.65C389.922 116.65 390.414 116.658 390.847 116.675C391.297 116.692 391.731 116.708 392.147 116.725C392.581 116.742 393.047 116.75 393.547 116.75C394.214 116.75 394.914 116.75 395.647 116.75C396.397 116.733 397.072 116.717 397.672 116.7C398.239 116.7 398.706 116.692 399.072 116.675C399.456 116.642 399.681 116.625 399.747 116.625C399.847 116.625 399.947 116.65 400.047 116.7C400.164 116.733 400.231 116.808 400.247 116.925C400.331 117.442 400.414 117.95 400.497 118.45C400.597 118.933 400.647 119.358 400.647 119.725C400.647 119.892 400.606 120.008 400.522 120.075C400.456 120.125 400.381 120.15 400.297 120.15C400.214 120.15 400.147 120.125 400.097 120.075C400.047 120.025 399.997 119.95 399.947 119.85C399.831 119.517 399.722 119.217 399.622 118.95C399.522 118.667 399.406 118.458 399.272 118.325C399.056 118.092 398.806 117.917 398.522 117.8C398.239 117.683 397.922 117.625 397.572 117.625H394.772C394.556 117.625 394.322 117.708 394.072 117.875C393.839 118.025 393.722 118.242 393.722 118.525V123.625C393.722 123.792 393.772 123.925 393.872 124.025C393.972 124.125 394.089 124.175 394.222 124.175H396.597C397.081 124.175 397.414 124.067 397.597 123.85C397.781 123.633 397.931 123.3 398.047 122.85C398.164 122.517 398.322 122.35 398.522 122.35C398.606 122.35 398.681 122.392 398.747 122.475C398.814 122.542 398.847 122.65 398.847 122.8C398.847 122.9 398.839 123.067 398.822 123.3C398.806 123.533 398.789 123.775 398.772 124.025C398.756 124.275 398.747 124.475 398.747 124.625C398.747 124.808 398.747 125.033 398.747 125.3C398.764 125.55 398.781 125.8 398.797 126.05C398.814 126.3 398.822 126.483 398.822 126.6C398.839 126.75 398.822 126.875 398.772 126.975C398.739 127.058 398.681 127.1 398.597 127.1C398.331 127.1 398.131 126.858 397.997 126.375C397.897 125.942 397.756 125.617 397.572 125.4C397.406 125.183 397.156 125.075 396.822 125.075H394.497C394.231 125.075 394.031 125.117 393.897 125.2C393.781 125.283 393.722 125.458 393.722 125.725V130.5C393.722 131.083 393.847 131.492 394.097 131.725C394.347 131.942 394.731 132.05 395.247 132.05H397.222C397.689 132.05 398.097 132.017 398.447 131.95C398.797 131.883 399.097 131.758 399.347 131.575C399.631 131.375 399.881 131.117 400.097 130.8C400.314 130.483 400.539 130.092 400.772 129.625C400.839 129.525 400.906 129.45 400.972 129.4C401.039 129.333 401.114 129.308 401.197 129.325C401.297 129.325 401.364 129.367 401.397 129.45C401.447 129.517 401.472 129.608 401.472 129.725C401.472 129.908 401.431 130.183 401.347 130.55C401.264 130.917 401.156 131.3 401.022 131.7C400.906 132.1 400.797 132.442 400.697 132.725C400.647 132.842 400.589 132.933 400.522 133C400.456 133.083 400.372 133.125 400.272 133.125C399.672 133.125 399.047 133.117 398.397 133.1C397.747 133.083 397.081 133.067 396.397 133.05C395.714 133.033 395.031 133.017 394.347 133C393.664 132.983 392.989 132.975 392.322 132.975C391.972 132.975 391.639 132.983 391.322 133C391.006 133.033 390.681 133.058 390.347 133.075C390.031 133.108 389.664 133.125 389.247 133.125ZM408.756 133.375C408.056 133.375 407.398 133.275 406.781 133.075C406.165 132.892 405.598 132.608 405.081 132.225C405.015 132.158 404.94 132.083 404.856 132C404.79 131.9 404.74 131.8 404.706 131.7C404.59 131.317 404.506 130.842 404.456 130.275C404.423 129.692 404.398 129.175 404.381 128.725C404.381 128.608 404.431 128.525 404.531 128.475C404.631 128.408 404.748 128.375 404.881 128.375C404.998 128.375 405.09 128.4 405.156 128.45C405.24 128.483 405.298 128.558 405.331 128.675C405.681 129.942 406.198 130.892 406.881 131.525C407.565 132.142 408.306 132.45 409.106 132.45C409.673 132.45 410.156 132.325 410.556 132.075C410.973 131.825 411.298 131.492 411.531 131.075C411.765 130.642 411.881 130.158 411.881 129.625C411.881 128.992 411.773 128.475 411.556 128.075C411.34 127.675 411.023 127.317 410.606 127C410.19 126.683 409.673 126.342 409.056 125.975C408.39 125.575 407.731 125.158 407.081 124.725C406.448 124.292 405.923 123.783 405.506 123.2C405.09 122.617 404.881 121.9 404.881 121.05C404.881 120.15 405.09 119.358 405.506 118.675C405.94 117.975 406.565 117.425 407.381 117.025C408.198 116.608 409.181 116.4 410.331 116.4C410.931 116.4 411.473 116.467 411.956 116.6C412.456 116.717 412.856 116.842 413.156 116.975C413.306 117.025 413.423 117.108 413.506 117.225C413.606 117.342 413.681 117.483 413.731 117.65C413.815 118 413.906 118.408 414.006 118.875C414.106 119.342 414.156 119.817 414.156 120.3C414.156 120.483 414.023 120.575 413.756 120.575C413.606 120.575 413.465 120.542 413.331 120.475C413.198 120.408 413.115 120.325 413.081 120.225C412.748 119.292 412.331 118.583 411.831 118.1C411.348 117.617 410.731 117.375 409.981 117.375C409.481 117.375 409.023 117.467 408.606 117.65C408.206 117.817 407.881 118.1 407.631 118.5C407.398 118.883 407.281 119.392 407.281 120.025C407.281 120.475 407.431 120.9 407.731 121.3C408.048 121.683 408.465 122.058 408.981 122.425C409.515 122.775 410.106 123.142 410.756 123.525C411.44 123.942 412.056 124.375 412.606 124.825C413.156 125.275 413.59 125.792 413.906 126.375C414.223 126.942 414.381 127.625 414.381 128.425C414.381 129.475 414.148 130.375 413.681 131.125C413.215 131.858 412.556 132.417 411.706 132.8C410.873 133.183 409.89 133.375 408.756 133.375ZM422.121 133.375C421.421 133.375 420.763 133.275 420.146 133.075C419.53 132.892 418.963 132.608 418.446 132.225C418.38 132.158 418.305 132.083 418.221 132C418.155 131.9 418.105 131.8 418.071 131.7C417.955 131.317 417.871 130.842 417.821 130.275C417.788 129.692 417.763 129.175 417.746 128.725C417.746 128.608 417.796 128.525 417.896 128.475C417.996 128.408 418.113 128.375 418.246 128.375C418.363 128.375 418.455 128.4 418.521 128.45C418.605 128.483 418.663 128.558 418.696 128.675C419.046 129.942 419.563 130.892 420.246 131.525C420.93 132.142 421.671 132.45 422.471 132.45C423.038 132.45 423.521 132.325 423.921 132.075C424.338 131.825 424.663 131.492 424.896 131.075C425.13 130.642 425.246 130.158 425.246 129.625C425.246 128.992 425.138 128.475 424.921 128.075C424.705 127.675 424.388 127.317 423.971 127C423.555 126.683 423.038 126.342 422.421 125.975C421.755 125.575 421.096 125.158 420.446 124.725C419.813 124.292 419.288 123.783 418.871 123.2C418.455 122.617 418.246 121.9 418.246 121.05C418.246 120.15 418.455 119.358 418.871 118.675C419.305 117.975 419.93 117.425 420.746 117.025C421.563 116.608 422.546 116.4 423.696 116.4C424.296 116.4 424.838 116.467 425.321 116.6C425.821 116.717 426.221 116.842 426.521 116.975C426.671 117.025 426.788 117.108 426.871 117.225C426.971 117.342 427.046 117.483 427.096 117.65C427.18 118 427.271 118.408 427.371 118.875C427.471 119.342 427.521 119.817 427.521 120.3C427.521 120.483 427.388 120.575 427.121 120.575C426.971 120.575 426.83 120.542 426.696 120.475C426.563 120.408 426.48 120.325 426.446 120.225C426.113 119.292 425.696 118.583 425.196 118.1C424.713 117.617 424.096 117.375 423.346 117.375C422.846 117.375 422.388 117.467 421.971 117.65C421.571 117.817 421.246 118.1 420.996 118.5C420.763 118.883 420.646 119.392 420.646 120.025C420.646 120.475 420.796 120.9 421.096 121.3C421.413 121.683 421.83 122.058 422.346 122.425C422.88 122.775 423.471 123.142 424.121 123.525C424.805 123.942 425.421 124.375 425.971 124.825C426.521 125.275 426.955 125.792 427.271 126.375C427.588 126.942 427.746 127.625 427.746 128.425C427.746 129.475 427.513 130.375 427.046 131.125C426.58 131.858 425.921 132.417 425.071 132.8C424.238 133.183 423.255 133.375 422.121 133.375Z" fill="black"/>
</svg>
