<svg width="128" height="134" viewBox="0 0 128 134" fill="none" xmlns="http://www.w3.org/2000/svg">
<circle cx="63.7164" cy="8.5" r="8.5" fill="black"/>
<path d="M77.1715 29.4834C77.9949 34.192 80.9289 41.407 87.0387 47.251C93.0609 53.0112 102.299 57.5708 116.08 56.9424C129.861 56.314 131.751 62.2334 116.353 62.9355C100.955 63.6377 90.1137 58.4952 82.8912 51.5869C75.7563 44.7624 72.28 36.342 71.2613 30.5166C70.2426 24.6912 76.348 24.7748 77.1715 29.4834Z" fill="black"/>
<path d="M51.2632 29.4717C50.4227 34.1655 47.4244 41.3774 41.1636 47.2266C34.9878 52.9963 25.5014 57.5717 11.3501 56.9414C-2.80123 56.3112 -4.63928 62.2353 11.0825 62.9356C26.8043 63.6358 37.875 58.5099 45.2593 51.6114C52.5584 44.7921 56.1226 38.5567 57.1694 30.5283C58.2163 22.5 52.1036 24.7779 51.2632 29.4717Z" fill="black"/>
<path d="M20.4671 106.146C20.1027 95.8248 21.5351 91.0376 31.5351 83.0376C41.5351 75.0376 31.5351 72 23.3778 79.2368C15.2206 86.4736 11.5995 93.8099 12.0351 106.146C12.2545 112.362 14.7298 118.628 18.6052 123.644C22.5741 128.78 28.6229 132.062 36.8191 132.973L36.864 132.978L36.9089 132.981C41.516 133.4 48.302 132.345 54.4499 128.035C60.7464 123.621 67.6314 113.421 69.3934 101.527C72.1815 82.7087 84.2284 81.0308 90.2537 81.001C94.4104 81.1505 100.191 83.3505 103.689 89.7764C110.086 101.527 104.49 115.748 95.4901 124.709C86.4901 133.67 95.4901 136.897 104.076 127.408C112.662 117.919 121.247 103.208 111.593 85.4736C106.312 75.7709 97.291 72.2092 90.4529 72.002L90.3845 72H90.3162C80.9752 72.0002 64.0923 75.8939 60.4901 100.209C59.0521 109.915 53.3539 117.812 49.2839 120.665C45.0834 123.609 40.4902 124.26 37.7595 124.02C31.5887 123.324 27.9518 121.02 25.7273 118.141C23.4029 115.132 20.6477 111.26 20.4671 106.146Z" fill="black"/>
</svg>
