<svg width="50" height="50" viewBox="0 0 50 50" fill="none" xmlns="http://www.w3.org/2000/svg">
<path d="M4.16675 43.75C5.55564 35.4166 9.7223 30.5555 16.6667 29.1666C23.6112 27.7777 27.7779 25.6944 29.1667 22.9166M39.5834 4.16663C36.8056 9.72218 31.2501 12.5 22.9167 12.5C19.049 12.5 15.3397 14.0364 12.6048 16.7713C9.86987 19.5062 8.33341 23.2156 8.33341 27.0833C8.33341 30.951 9.86987 34.6604 12.6048 37.3953C15.3397 40.1302 19.049 41.6666 22.9167 41.6666C26.9183 41.7941 30.8685 40.6508 34.2947 38.3733C37.7209 36.0959 40.4781 32.7809 42.2364 28.8248C43.9946 24.8687 44.6795 20.4392 44.209 16.0662C43.7385 11.6932 42.1326 7.56193 39.5834 4.16663Z" stroke="#BBC5C6" stroke-width="3" stroke-linecap="round" stroke-linejoin="round"/>
</svg>
