<svg width="41" height="41" viewBox="0 0 41 41" fill="none" xmlns="http://www.w3.org/2000/svg">
<path fill-rule="evenodd" clip-rule="evenodd" d="M20.5 6.83333C20.5 7.28641 20.68 7.72093 21.0004 8.04131C21.3207 8.36168 21.7553 8.54167 22.2083 8.54167H30.0428L21.0005 17.5839C20.7617 17.8228 20.5991 18.1272 20.5332 18.4585C20.4673 18.7898 20.5011 19.1333 20.6304 19.4454C20.7597 19.7575 20.9786 20.0243 21.2594 20.212C21.5403 20.3997 21.8705 20.4999 22.2083 20.5H34.1667C34.6197 20.5 35.0543 20.32 35.3746 19.9996C35.695 19.6793 35.875 19.2447 35.875 18.7917C35.875 18.3386 35.695 17.9041 35.3746 17.5837C35.0543 17.2633 34.6197 17.0833 34.1667 17.0833H26.3323L35.3745 8.04112C35.6133 7.80221 35.7759 7.49785 35.8418 7.16651C35.9077 6.83518 35.8739 6.49174 35.7446 6.17963C35.6153 5.86752 35.3964 5.60074 35.1156 5.41302C34.8347 5.2253 34.5045 5.12507 34.1667 5.125H22.2083C21.7553 5.125 21.3207 5.30498 21.0004 5.62536C20.68 5.94573 20.5 6.38026 20.5 6.83333ZM6.83333 17.0833C6.38026 17.0833 5.94573 16.9033 5.62536 16.583C5.30498 16.2626 5.125 15.8281 5.125 15.375C5.125 14.9219 5.30498 14.4874 5.62536 14.167C5.94573 13.8467 6.38026 13.6667 6.83333 13.6667H15.375C15.7128 13.6667 16.043 13.767 16.3239 13.9547C16.6048 14.1424 16.8237 14.4092 16.953 14.7213C17.0822 15.0334 17.116 15.3768 17.0502 15.7082C16.9843 16.0395 16.8216 16.3439 16.5828 16.5828L10.9573 22.2083H15.375C15.8281 22.2083 16.2626 22.3883 16.583 22.7087C16.9033 23.0291 17.0833 23.4636 17.0833 23.9167C17.0833 24.3697 16.9033 24.8043 16.583 25.1246C16.2626 25.445 15.8281 25.625 15.375 25.625H6.83333C6.49551 25.6249 6.16529 25.5247 5.88442 25.337C5.60356 25.1493 5.38465 24.8825 5.25538 24.5704C5.12611 24.2583 5.09228 23.9148 5.15817 23.5835C5.22406 23.2522 5.3867 22.9478 5.62554 22.7089L11.2511 17.0833H6.83333ZM20.5 29.0417C20.0469 29.0417 19.6124 28.8617 19.292 28.5413C18.9717 28.2209 18.7917 27.7864 18.7917 27.3333C18.7917 26.8803 18.9717 26.4457 19.292 26.1254C19.6124 25.805 20.0469 25.625 20.5 25.625H27.3333C27.6712 25.6251 28.0014 25.7253 28.2822 25.913C28.5631 26.1007 28.782 26.3675 28.9113 26.6796C29.0406 26.9917 29.0744 27.3352 29.0085 27.6665C28.9426 27.9979 28.78 28.3022 28.5411 28.5411L24.6239 32.4583H27.3333C27.7864 32.4583 28.2209 32.6383 28.5413 32.9587C28.8617 33.2791 29.0417 33.7136 29.0417 34.1667C29.0417 34.6197 28.8617 35.0543 28.5413 35.3746C28.2209 35.695 27.7864 35.875 27.3333 35.875H20.5C20.1622 35.8749 19.832 35.7747 19.5511 35.587C19.2702 35.3993 19.0513 35.1325 18.922 34.8204C18.7928 34.5083 18.759 34.1648 18.8248 33.8335C18.8907 33.5021 19.0534 33.1978 19.2922 32.9589L23.2094 29.0417H20.5Z" fill="#3E3A5D"/>
</svg>
