<svg width="73" height="71" viewBox="0 0 73 71" fill="none" xmlns="http://www.w3.org/2000/svg">
<path d="M38.9774 36.5288C38.6827 36.5288 38.4371 36.4376 38.2406 36.2552C38.0441 36.0657 37.8932 35.8306 37.788 35.5499C37.6897 35.2692 37.6406 34.9815 37.6406 34.6868C37.6406 34.371 37.7003 34.0728 37.8196 33.7921C37.9459 33.5043 38.1248 33.2728 38.3564 33.0973C38.588 32.9149 38.8581 32.8237 39.1669 32.8237C39.4546 32.8237 39.6932 32.9114 39.8827 33.0868C40.0792 33.2552 40.2265 33.4728 40.3248 33.7394C40.43 34.0061 40.4827 34.2833 40.4827 34.571C40.4827 34.8868 40.423 35.1955 40.3037 35.4973C40.1914 35.799 40.023 36.0481 39.7985 36.2446C39.5739 36.4341 39.3002 36.5288 38.9774 36.5288ZM39.0932 36.2973C39.3248 36.2973 39.4932 36.2131 39.5985 36.0446C39.7107 35.8762 39.7809 35.6692 39.809 35.4236C39.8371 35.171 39.8511 34.9289 39.8511 34.6973C39.8511 34.4587 39.8336 34.2166 39.7985 33.971C39.7634 33.7254 39.6897 33.5184 39.5774 33.35C39.4651 33.1745 39.2897 33.0868 39.0511 33.0868C38.8336 33.0868 38.6687 33.1675 38.5564 33.3289C38.4441 33.4833 38.3669 33.6763 38.3248 33.9078C38.2897 34.1324 38.2722 34.3534 38.2722 34.571C38.2722 34.7605 38.2792 34.9569 38.2932 35.1604C38.3143 35.3569 38.3494 35.5429 38.3985 35.7183C38.4546 35.8867 38.5353 36.0271 38.6406 36.1394C38.7529 36.2446 38.9037 36.2973 39.0932 36.2973ZM42.7668 32.4763C42.8159 32.3991 42.8721 32.35 42.9352 32.3289C43.0054 32.3079 43.0861 32.2974 43.1773 32.2974C43.2124 32.2974 43.244 32.3114 43.2721 32.3395C43.3071 32.3675 43.3247 32.3991 43.3247 32.4342C43.3247 32.4553 43.3212 32.4693 43.3142 32.4763L38.7038 39.7919C38.6617 39.8621 38.6055 39.9042 38.5353 39.9182C38.4722 39.9393 38.402 39.9498 38.3248 39.9498C38.2827 39.9498 38.2406 39.9358 38.1985 39.9077C38.1634 39.8796 38.1459 39.8516 38.1459 39.8235C38.1459 39.8094 38.1494 39.7989 38.1564 39.7919L42.7668 32.4763ZM42.6615 39.4761C42.3668 39.4761 42.1212 39.3849 41.9247 39.2024C41.7282 39.013 41.5774 38.7779 41.4721 38.4972C41.3739 38.2165 41.3247 37.9288 41.3247 37.6341C41.3247 37.3183 41.3844 37.02 41.5037 36.7394C41.63 36.4516 41.8089 36.2201 42.0405 36.0446C42.2721 35.8622 42.5423 35.771 42.851 35.771C43.1387 35.771 43.3773 35.8587 43.5668 36.0341C43.7633 36.2025 43.9106 36.4201 44.0089 36.6867C44.1141 36.9534 44.1668 37.2306 44.1668 37.5183C44.1668 37.8341 44.1071 38.1428 43.9878 38.4446C43.8755 38.7463 43.7071 38.9954 43.4826 39.1919C43.258 39.3814 42.9843 39.4761 42.6615 39.4761ZM42.7773 39.2445C43.0089 39.2445 43.1773 39.1603 43.2826 38.9919C43.3949 38.8235 43.465 38.6165 43.4931 38.3709C43.5212 38.1183 43.5352 37.8762 43.5352 37.6446C43.5352 37.406 43.5177 37.1639 43.4826 36.9183C43.4475 36.6727 43.3738 36.4657 43.2615 36.2973C43.1493 36.1218 42.9738 36.0341 42.7352 36.0341C42.5177 36.0341 42.3528 36.1148 42.2405 36.2762C42.1282 36.4306 42.051 36.6236 42.0089 36.8551C41.9738 37.0797 41.9563 37.3007 41.9563 37.5183C41.9563 37.7077 41.9633 37.9042 41.9774 38.1077C41.9984 38.3042 42.0335 38.4902 42.0826 38.6656C42.1388 38.834 42.2195 38.9744 42.3247 39.0867C42.437 39.1919 42.5879 39.2445 42.7773 39.2445Z" fill="#3E3A5D"/>
<path d="M34.9725 39.4447C34.6497 39.4447 34.3444 39.378 34.0567 39.2447C33.776 39.1043 33.548 38.9113 33.3725 38.6657C33.1971 38.4201 33.1094 38.1359 33.1094 37.8131C33.1094 37.5044 33.1901 37.2412 33.3515 37.0237C33.5129 36.8061 33.7023 36.6272 33.9199 36.4868C34.1444 36.3395 34.3444 36.2167 34.5199 36.1184C34.569 36.0904 34.5865 36.0693 34.5725 36.0553C34.5585 36.0412 34.5304 36.0167 34.4883 35.9816C34.2778 35.7991 34.0778 35.6272 33.8883 35.4658C33.7059 35.2974 33.555 35.1114 33.4357 34.9079C33.3234 34.6974 33.2673 34.4448 33.2673 34.1501C33.2673 33.8764 33.362 33.6273 33.5515 33.4027C33.7409 33.1782 33.983 32.9992 34.2778 32.8659C34.5725 32.7326 34.8742 32.6659 35.183 32.6659C35.4637 32.6659 35.7304 32.7255 35.983 32.8448C36.2426 32.9571 36.4531 33.1185 36.6145 33.329C36.7759 33.5396 36.8566 33.7887 36.8566 34.0764C36.8566 34.329 36.7935 34.536 36.6672 34.6974C36.5409 34.8518 36.4181 34.9816 36.2988 35.0869C36.2005 35.1711 36.1128 35.2448 36.0356 35.3079C35.9584 35.3641 35.8602 35.4378 35.7409 35.529C35.6497 35.5921 35.604 35.6377 35.604 35.6658C35.604 35.6869 35.6321 35.7149 35.6883 35.75C35.9549 35.9325 36.19 36.1114 36.3935 36.2869C36.597 36.4623 36.7549 36.6518 36.8672 36.8553C36.9865 37.0588 37.0461 37.2974 37.0461 37.571C37.0461 37.9359 36.9444 38.2587 36.7409 38.5394C36.5374 38.8201 36.2777 39.0412 35.9619 39.2026C35.6462 39.364 35.3163 39.4447 34.9725 39.4447ZM35.1198 39.1394C35.4286 39.1394 35.6847 39.0271 35.8882 38.8026C36.0988 38.571 36.204 38.3008 36.204 37.9921C36.204 37.7745 36.1409 37.5675 36.0146 37.371C35.8953 37.1745 35.7409 36.9921 35.5514 36.8237C35.3619 36.6482 35.1655 36.4904 34.962 36.35C34.9199 36.3149 34.8813 36.2904 34.8462 36.2763C34.8181 36.2553 34.7865 36.2447 34.7514 36.2447C34.7234 36.2447 34.6813 36.2658 34.6251 36.3079C34.4006 36.4904 34.2322 36.6763 34.1199 36.8658C34.0076 37.0482 33.9515 37.3079 33.9515 37.6447C33.9515 37.8903 33.9971 38.1289 34.0883 38.3605C34.1795 38.585 34.3129 38.771 34.4883 38.9184C34.6637 39.0657 34.8742 39.1394 35.1198 39.1394ZM35.4567 35.529C35.7023 35.3255 35.8602 35.1009 35.9304 34.8553C36.0075 34.6097 36.0461 34.3255 36.0461 34.0027C36.0461 33.708 35.9689 33.4553 35.8146 33.2448C35.6672 33.0273 35.4391 32.9185 35.1304 32.9185C34.969 32.9185 34.8076 32.9641 34.6462 33.0554C34.4848 33.1466 34.3479 33.2694 34.2357 33.4238C34.1304 33.5782 34.0778 33.7501 34.0778 33.9395C34.0778 34.2062 34.1269 34.4167 34.2251 34.5711C34.3304 34.7255 34.4743 34.8693 34.6567 35.0027C34.8462 35.129 35.0637 35.2939 35.3093 35.4974C35.3304 35.5114 35.3549 35.5255 35.383 35.5395C35.4111 35.5465 35.4356 35.543 35.4567 35.529Z" fill="#3E3A5D"/>
<path d="M29.5781 39.3288C29.543 39.3288 29.5009 39.3183 29.4518 39.2973C29.4097 39.2762 29.3886 39.2411 29.3886 39.192C29.3886 39.1569 29.4097 39.1289 29.4518 39.1078C29.4939 39.0867 29.536 39.0727 29.5781 39.0657C29.9079 39.0236 30.1255 38.9534 30.2307 38.8552C30.336 38.7569 30.3886 38.6236 30.3886 38.4552V37.4763C30.3886 37.4412 30.364 37.4166 30.3149 37.4026C30.2658 37.3885 30.2377 37.3815 30.2307 37.3815C29.943 37.3815 29.6728 37.3885 29.4202 37.4026C29.1746 37.4096 28.915 37.4201 28.6413 37.4342C28.3676 37.4412 28.0448 37.4482 27.6729 37.4552C27.6448 37.4552 27.6203 37.4447 27.5992 37.4236C27.5782 37.3956 27.5676 37.371 27.5676 37.35C27.5676 37.3359 27.5711 37.3254 27.5782 37.3184C27.6694 37.2061 27.736 37.1289 27.7781 37.0868C27.8203 37.0377 27.8553 36.9991 27.8834 36.971C27.9115 36.9359 27.9466 36.8868 27.9887 36.8236L30.7675 32.8343C30.8096 32.7711 30.8588 32.708 30.9149 32.6448C30.9781 32.5746 31.0342 32.5396 31.0833 32.5396H31.3044C31.3395 32.5396 31.343 32.5641 31.3149 32.6132C31.2938 32.6624 31.2833 32.6869 31.2833 32.6869L28.4413 36.771C28.4343 36.7851 28.4273 36.8061 28.4202 36.8342C28.4132 36.8552 28.4202 36.8658 28.4413 36.8658H30.2623C30.2904 36.8658 30.3184 36.8587 30.3465 36.8447C30.3746 36.8236 30.3886 36.8026 30.3886 36.7815V35.15C30.3886 35.0728 30.3921 35.0202 30.3991 34.9921C30.4132 34.964 30.4412 34.9395 30.4833 34.9184C30.5886 34.8623 30.7009 34.8272 30.8202 34.8132C30.9395 34.7921 31.0237 34.7816 31.0728 34.7816C31.15 34.7816 31.1956 34.8377 31.2096 34.95C31.2237 35.0623 31.2307 35.2307 31.2307 35.4553V36.8131C31.2307 36.8552 31.2482 36.8763 31.2833 36.8763C31.3605 36.8833 31.4342 36.8868 31.5044 36.8868C31.5745 36.8868 31.6412 36.8868 31.7044 36.8868C31.8026 36.8868 31.9008 36.8868 31.9991 36.8868C32.1044 36.8798 32.2131 36.8728 32.3254 36.8658C32.4026 36.8658 32.4412 36.8938 32.4412 36.95C32.4412 37.0061 32.4236 37.0657 32.3886 37.1289C32.3605 37.1921 32.3289 37.2447 32.2938 37.2868C32.2587 37.3289 32.2342 37.35 32.2201 37.35C32.1429 37.35 32.0587 37.35 31.9675 37.35C31.8763 37.3429 31.7886 37.3394 31.7044 37.3394C31.6412 37.3394 31.5816 37.3429 31.5254 37.35C31.4693 37.35 31.4202 37.3535 31.3781 37.3605C31.35 37.3675 31.3184 37.378 31.2833 37.3921C31.2552 37.4061 31.2412 37.4166 31.2412 37.4236V38.4131C31.2412 38.6166 31.2868 38.7569 31.3781 38.8341C31.4763 38.9113 31.6658 38.9885 31.9465 39.0657C31.9886 39.0727 32.0307 39.0903 32.0728 39.1183C32.1149 39.1464 32.1359 39.178 32.1359 39.2131C32.1359 39.2411 32.1184 39.2692 32.0833 39.2973C32.0552 39.3183 32.0201 39.3288 31.978 39.3288C31.7816 39.3288 31.6237 39.3218 31.5044 39.3078C31.3921 39.3008 31.2868 39.2938 31.1886 39.2867C31.0903 39.2797 30.957 39.2762 30.7886 39.2762C30.6132 39.2762 30.4693 39.2797 30.357 39.2867C30.2518 39.2938 30.143 39.3008 30.0307 39.3078C29.9184 39.3218 29.7676 39.3288 29.5781 39.3288Z" fill="#3E3A5D"/>
<g filter="url(#filter0_i_33_410)">
<path d="M35.0869 0.827393C54.4644 0.827393 70.1746 16.5359 70.1748 35.9133C70.1748 55.291 54.4645 71.0002 35.0869 71.0002C15.7095 71 0 55.2908 0 35.9133C0.00019664 16.536 15.7096 0.827599 35.0869 0.827393ZM35.0869 7.84497C19.5851 7.84518 7.01778 20.4115 7.01758 35.9133C7.01758 51.4153 19.585 63.9825 35.0869 63.9827C50.589 63.9827 63.1572 51.4154 63.1572 35.9133C63.157 20.4114 50.5889 7.84497 35.0869 7.84497Z" fill="#3E3A5D" fill-opacity="0.08"/>
</g>
<g filter="url(#filter1_i_33_410)">
<path d="M29.864 3.5649C30.0029 1.97739 31.2237 0.68046 32.8148 0.591769C34.4746 0.499248 36.1612 0.523607 37.8657 0.672728C55.9918 2.25856 69.6883 17.3599 69.8942 35.1785C69.9166 37.1162 68.196 38.5471 66.2656 38.3782C64.3352 38.2093 62.9308 36.5017 62.86 34.5652C62.3501 20.618 51.5161 8.91115 37.2541 7.66339C36.1428 7.56616 35.041 7.53517 33.9525 7.56708C31.691 7.63338 29.6669 5.81872 29.864 3.5649Z" fill="#3E3A5D"/>
</g>
<defs>
<filter id="filter0_i_33_410" x="0" y="0.827393" width="71.1748" height="72.1729" filterUnits="userSpaceOnUse" color-interpolation-filters="sRGB">
<feFlood flood-opacity="0" result="BackgroundImageFix"/>
<feBlend mode="normal" in="SourceGraphic" in2="BackgroundImageFix" result="shape"/>
<feColorMatrix in="SourceAlpha" type="matrix" values="0 0 0 0 0 0 0 0 0 0 0 0 0 0 0 0 0 0 127 0" result="hardAlpha"/>
<feMorphology radius="2" operator="dilate" in="SourceAlpha" result="effect1_innerShadow_33_410"/>
<feOffset dx="1" dy="2"/>
<feGaussianBlur stdDeviation="2"/>
<feComposite in2="hardAlpha" operator="arithmetic" k2="-1" k3="1"/>
<feColorMatrix type="matrix" values="0 0 0 0 0.176471 0 0 0 0 0.243137 0 0 0 0 0.321569 0 0 0 0.4 0"/>
<feBlend mode="normal" in2="shape" result="effect1_innerShadow_33_410"/>
</filter>
<filter id="filter1_i_33_410" x="29.8508" y="0.537354" width="41.0437" height="39.8544" filterUnits="userSpaceOnUse" color-interpolation-filters="sRGB">
<feFlood flood-opacity="0" result="BackgroundImageFix"/>
<feBlend mode="normal" in="SourceGraphic" in2="BackgroundImageFix" result="shape"/>
<feColorMatrix in="SourceAlpha" type="matrix" values="0 0 0 0 0 0 0 0 0 0 0 0 0 0 0 0 0 0 127 0" result="hardAlpha"/>
<feOffset dx="1" dy="2"/>
<feGaussianBlur stdDeviation="2"/>
<feComposite in2="hardAlpha" operator="arithmetic" k2="-1" k3="1"/>
<feColorMatrix type="matrix" values="0 0 0 0 0.937255 0 0 0 0 0.937255 0 0 0 0 0.937255 0 0 0 0.4 0"/>
<feBlend mode="normal" in2="shape" result="effect1_innerShadow_33_410"/>
</filter>
</defs>
</svg>
