<svg width="50" height="50" viewBox="0 0 50 50" fill="none" xmlns="http://www.w3.org/2000/svg">
<path d="M37.4922 11.0186L37.0651 12.4565L38.492 9.90034L37.4922 11.0186ZM33.333 10.417V8.91699H33.333L33.333 10.417ZM18.75 25H17.25H18.75ZM33.333 39.583L33.333 41.083H33.333V39.583ZM37.4922 38.9805L38.492 40.0986L37.0651 37.5426L37.4922 38.9805ZM25 6.25V7.75C29.4156 7.75 33.4402 9.4078 36.4924 12.1368L37.4922 11.0186L38.492 9.90034C34.9115 6.69898 30.1819 4.75 25 4.75V6.25ZM37.4922 11.0186L37.9193 9.58064C36.4641 9.14844 34.9241 8.91699 33.333 8.91699V10.417V11.917C34.632 11.917 35.8844 12.1058 37.0651 12.4565L37.4922 11.0186ZM33.333 10.417L33.333 8.91699C24.4506 8.91719 17.25 16.1175 17.25 25H18.75H20.25C20.25 17.7744 26.1074 11.9172 33.333 11.917L33.333 10.417ZM18.75 25H17.25C17.25 33.8825 24.4506 41.0828 33.333 41.083L33.333 39.583L33.333 38.083C26.1074 38.0828 20.25 32.2256 20.25 25H18.75ZM33.333 39.583V41.083C34.9249 41.083 36.4647 40.8504 37.9193 40.4184L37.4922 38.9805L37.0651 37.5426C35.8836 37.8935 34.6314 38.083 33.333 38.083V39.583ZM37.4922 38.9805L36.4924 37.8623C33.44 40.5916 29.4157 42.25 25 42.25V43.75V45.25C30.1823 45.25 34.9116 43.3002 38.492 40.0986L37.4922 38.9805ZM25 43.75V42.25C15.4731 42.25 7.75 34.5269 7.75 25H6.25H4.75C4.75 36.1838 13.8162 45.25 25 45.25V43.75ZM6.25 25H7.75C7.75 15.4731 15.4731 7.75 25 7.75V6.25V4.75C13.8162 4.75 4.75 13.8162 4.75 25H6.25Z" fill="#BBC5C6"/>
</svg>
