<svg width="72" height="72" viewBox="0 0 72 72" fill="none" xmlns="http://www.w3.org/2000/svg">
<g filter="url(#filter0_i_33_433)">
<path d="M7.20005 24C7.83657 24 8.44702 24.2529 8.8971 24.703C9.34719 25.1531 9.60005 25.7635 9.60005 26.4V64.8C9.60005 65.4366 9.34719 66.047 8.8971 66.4971C8.44702 66.9472 7.83657 67.2 7.20005 67.2C6.56353 67.2 5.95308 66.9472 5.50299 66.4971C5.05291 66.047 4.80005 65.4366 4.80005 64.8V26.4C4.80005 25.7635 5.05291 25.1531 5.50299 24.703C5.95308 24.2529 6.56353 24 7.20005 24ZM16.8 33.6C17.4366 33.6 18.047 33.8529 18.4971 34.303C18.9472 34.7531 19.2 35.3635 19.2 36V64.8C19.2 65.4366 18.9472 66.047 18.4971 66.4971C18.047 66.9472 17.4366 67.2 16.8 67.2C16.1635 67.2 15.5531 66.9472 15.103 66.4971C14.6529 66.047 14.4 65.4366 14.4 64.8V36C14.4 35.3635 14.6529 34.7531 15.103 34.303C15.5531 33.8529 16.1635 33.6 16.8 33.6ZM26.4 19.2C27.0366 19.2 27.647 19.4529 28.0971 19.903C28.5472 20.3531 28.8 20.9635 28.8 21.6V64.8C28.8 65.4366 28.5472 66.047 28.0971 66.4971C27.647 66.9472 27.0366 67.2 26.4 67.2C25.7635 67.2 25.1531 66.9472 24.703 66.4971C24.2529 66.047 24 65.4366 24 64.8V21.6C24 20.9635 24.2529 20.3531 24.703 19.903C25.1531 19.4529 25.7635 19.2 26.4 19.2ZM36 24C36.6366 24 37.247 24.2529 37.6971 24.703C38.1472 25.1531 38.4 25.7635 38.4 26.4V64.8C38.4 65.4366 38.1472 66.047 37.6971 66.4971C37.247 66.9472 36.6366 67.2 36 67.2C35.3635 67.2 34.7531 66.9472 34.303 66.4971C33.8529 66.047 33.6 65.4366 33.6 64.8V26.4C33.6 25.7635 33.8529 25.1531 34.303 24.703C34.7531 24.2529 35.3635 24 36 24ZM45.6 14.4C46.2366 14.4 46.847 14.6529 47.2971 15.103C47.7472 15.5531 48 16.1635 48 16.8V64.8C48 65.4366 47.7472 66.047 47.2971 66.4971C46.847 66.9472 46.2366 67.2 45.6 67.2C44.9635 67.2 44.3531 66.9472 43.903 66.4971C43.4529 66.047 43.2 65.4366 43.2 64.8V16.8C43.2 16.1635 43.4529 15.5531 43.903 15.103C44.3531 14.6529 44.9635 14.4 45.6 14.4ZM55.2 4.80005C55.8366 4.80005 56.447 5.05291 56.8971 5.50299C57.3472 5.95308 57.6 6.56353 57.6 7.20005V64.8C57.6 65.4366 57.3472 66.047 56.8971 66.4971C56.447 66.9472 55.8366 67.2 55.2 67.2C54.5635 67.2 53.9531 66.9472 53.503 66.4971C53.0529 66.047 52.8 65.4366 52.8 64.8V7.20005C52.8 6.56353 53.0529 5.95308 53.503 5.50299C53.9531 5.05291 54.5635 4.80005 55.2 4.80005ZM64.8 14.4C65.4366 14.4 66.047 14.6529 66.4971 15.103C66.9472 15.5531 67.2 16.1635 67.2 16.8V64.8C67.2 65.4366 66.9472 66.047 66.4971 66.4971C66.047 66.9472 65.4366 67.2 64.8 67.2C64.1635 67.2 63.5531 66.9472 63.103 66.4971C62.6529 66.047 62.4 65.4366 62.4 64.8V16.8C62.4 16.1635 62.6529 15.5531 63.103 15.103C63.5531 14.6529 64.1635 14.4 64.8 14.4Z" fill="#3E3A5D"/>
</g>
<defs>
<filter id="filter0_i_33_433" x="0" y="0" width="73" height="74" filterUnits="userSpaceOnUse" color-interpolation-filters="sRGB">
<feFlood flood-opacity="0" result="BackgroundImageFix"/>
<feBlend mode="normal" in="SourceGraphic" in2="BackgroundImageFix" result="shape"/>
<feColorMatrix in="SourceAlpha" type="matrix" values="0 0 0 0 0 0 0 0 0 0 0 0 0 0 0 0 0 0 127 0" result="hardAlpha"/>
<feOffset dx="1" dy="2"/>
<feGaussianBlur stdDeviation="2"/>
<feComposite in2="hardAlpha" operator="arithmetic" k2="-1" k3="1"/>
<feColorMatrix type="matrix" values="0 0 0 0 0.937255 0 0 0 0 0.937255 0 0 0 0 0.937255 0 0 0 0.4 0"/>
<feBlend mode="normal" in2="shape" result="effect1_innerShadow_33_433"/>
</filter>
</defs>
</svg>
