<svg width="22" height="22" viewBox="0 0 22 22" fill="none" xmlns="http://www.w3.org/2000/svg">
<circle cx="11" cy="11" r="11" fill="#BBC5C6"/>
<path d="M15.2426 15.2426C14.3562 16.1291 13.2143 16.7156 11.9774 16.9199C10.7405 17.1241 9.47064 16.9357 8.34627 16.3812C7.22189 15.8268 6.29944 14.934 5.70847 13.8284C5.1175 12.7228 4.8877 11.4598 5.05133 10.2168C5.21497 8.97391 5.76382 7.81345 6.62082 6.89845C7.47781 5.98344 8.59989 5.35987 9.82946 5.11529C11.059 4.87071 12.3343 5.01742 13.4762 5.53482C14.6182 6.05221 15.5693 6.9143 16.1962 8" stroke="#DCE4F1" stroke-width="2" stroke-linejoin="round"/>
<path d="M16.6428 5.00008C16.9363 5.50846 17.0539 6.09948 16.9773 6.68148C16.9006 7.26349 16.6341 7.80394 16.219 8.21903C15.8039 8.63412 15.2635 8.90065 14.6815 8.97727C14.0995 9.05389 13.5085 8.93633 13.0001 8.64282" stroke="#DCE4F1" stroke-width="2" stroke-linejoin="round"/>
</svg>
